  <svg
    width="28"
    height="28"
    viewBox="0 0 28 28"
    fill="none"
    xmlns="http://www.w3.org/2000/svg">
    <circle cx="14" cy="14" r="14" fill="#8C9DD0" />
    <path
      d="M21.3333 4.83331C21.5764 4.83331 21.8096 4.92989 21.9815 5.1018C22.1534 5.27371 22.25 5.50686 22.25 5.74998V9.1939L20.4167 11.0272V6.66665H7.58333V21.3333H20.4167V18.8051L22.25 16.9718V22.25C22.25 22.4931 22.1534 22.7263 21.9815 22.8982C21.8096 23.0701 21.5764 23.1666 21.3333 23.1666H6.66667C6.42355 23.1666 6.19039 23.0701 6.01849 22.8982C5.84658 22.7263 5.75 22.4931 5.75 22.25V5.74998C5.75 5.50686 5.84658 5.27371 6.01849 5.1018C6.19039 4.92989 6.42355 4.83331 6.66667 4.83331H21.3333ZM22.9632 11.074L24.2593 12.3701L17.1295 19.5L15.8315 19.4981L15.8333 18.2038L22.9632 11.074ZM14.9167 14V15.8333H10.3333V14H14.9167ZM17.6667 10.3333V12.1666H10.3333V10.3333H17.6667Z"
      fill="white"
    />
  </svg>