<svg width="26" height="17" viewBox="0 0 26 17" fill="none" xmlns="http://www.w3.org/2000/svg">
<path d="M8.70711 0.292892C8.31658 -0.0976315 7.68342 -0.0976314 7.29289 0.292892L0.928932 6.65685C0.538407 7.04738 0.538407 7.68054 0.928932 8.07107C1.31946 8.46159 1.95262 8.46159 2.34315 8.07107L8 2.41421L13.6569 8.07107C14.0474 8.46159 14.6805 8.46159 15.0711 8.07107C15.4616 7.68054 15.4616 7.04738 15.0711 6.65685L8.70711 0.292892ZM9 16L9 0.999999L7 0.999999L7 16L9 16Z" fill="#FFDC00"/>
<path d="M17.2929 16.7071C17.6834 17.0976 18.3166 17.0976 18.7071 16.7071L25.0711 10.3431C25.4616 9.95262 25.4616 9.31946 25.0711 8.92893C24.6805 8.53841 24.0474 8.53841 23.6569 8.92893L18 14.5858L12.3431 8.92893C11.9526 8.53841 11.3195 8.53841 10.9289 8.92893C10.5384 9.31946 10.5384 9.95262 10.9289 10.3431L17.2929 16.7071ZM17 1L17 16L19 16L19 1L17 1Z" fill="#3E245C"/>
</svg>
