<svg width="122" height="128" viewBox="0 0 122 128" fill="none" xmlns="http://www.w3.org/2000/svg">
<path d="M121.385 12L109.4 11.6923L111.552 0.307692C111.859 0 111.552 0 111.244 0L101.718 11.3846L101.103 18.1538L108.171 19.0769L121.693 12.6154C122 12.6154 122 12 121.385 12Z" fill="#FFDD00"/>
<path d="M110.015 20.3075C106.635 8.9229 94.3426 2.46136 82.9723 6.15367C72.5239 9.53828 66.0705 19.9998 67.9144 30.7691L0 90.769C4.91688 96.6152 12.2922 99.3844 20.2821 99.9998L7.06801 112L9.83375 115.077L3.68766 120.615L10.1411 127.692L43.0227 98.1537C57.1587 108 76.5189 107.077 89.4257 94.4614C102.332 81.846 103.869 62.1537 94.3426 47.9998C94.9572 47.9998 95.2645 47.6921 95.8791 47.6921C107.249 43.9998 113.703 31.9998 110.015 20.3075Z" fill="#FFDD00"/>
<path d="M65.4559 81.8461C78.0554 70.7692 78.9773 51.6923 67.9144 39.0769L22.7405 79.3846C34.1108 91.6923 53.1637 92.9231 65.4559 81.8461Z" fill="#3F245C"/>
<path d="M76.5189 117.538C75.9043 117.538 75.2897 116.923 75.597 116.308C76.8262 105.538 71.602 103.077 71.2947 102.769C70.6801 102.769 70.3728 102.154 70.6801 101.538C70.9874 100.923 71.602 100.615 72.2167 100.923C72.524 100.923 79.2847 104 77.7481 116.615C77.7481 116.923 77.1335 117.538 76.5189 117.538Z" fill="#3F245C"/>
<path d="M57.1587 118.154C56.8514 118.154 56.5441 118.154 56.5441 117.846C56.2367 117.539 55.9294 116.615 56.5441 116.308C63.9194 108 61.1536 103.077 60.8463 103.077C60.539 102.462 60.8463 101.846 61.1536 101.539C61.7682 101.231 62.3828 101.231 62.6901 101.846C62.9975 102.154 66.6851 108.308 58.0806 117.846C57.466 118.154 57.466 118.154 57.1587 118.154Z" fill="#3F245C"/>
<path d="M100.181 19.0769C101.103 21.5385 99.5667 24.3077 97.1083 25.2308C94.6499 26.1539 91.8841 24.6154 90.9622 22.1539C90.0403 19.6923 91.5768 16.9231 94.0352 16C96.801 15.0769 99.5667 16.6154 100.181 19.0769Z" fill="#3F245C"/>
</svg>
