<svg width="235" height="22" viewBox="0 0 235 22" fill="none" xmlns="http://www.w3.org/2000/svg">
<path d="M0.970459 3.60373e-06L30.0957 19.6324L58.6571 0.173781C58.9971 -0.0577978 59.4441 -0.0577978 59.7841 0.173781L88.3455 19.6324L116.907 0.173781C117.247 -0.0577978 117.694 -0.0577978 118.034 0.173781L146.595 19.6324L175.157 0.173781C175.497 -0.0577978 175.944 -0.0577978 176.284 0.173781L204.845 19.6324L233.406 0.173781C233.863 -0.13727 234.485 -0.0194718 234.796 0.43689C235.108 0.893251 234.99 1.51536 234.533 1.82641L205.408 21.6689C205.068 21.9005 204.621 21.9005 204.281 21.6689L175.72 2.21029L147.159 21.6689C146.819 21.9005 146.372 21.9005 146.032 21.6689L117.47 2.21029L88.9089 21.6689C88.569 21.9005 88.1219 21.9005 87.782 21.6689L59.2206 2.21029L30.6592 21.6689C30.3193 21.9005 29.8722 21.9005 29.5323 21.6689L0.97048 2L0.970459 3.60373e-06Z" fill="#FFDC00"/>
</svg>
