<svg width="235" height="22" viewBox="0 0 235 22" fill="none" xmlns="http://www.w3.org/2000/svg">
<path d="M0.970515 0L30.0958 19.7868L58.6542 0.175858C58.9954 -0.0584946 59.4459 -0.0584946 59.7872 0.175858L88.3455 19.7868L116.904 0.175858C117.245 -0.0584946 117.696 -0.0584946 118.037 0.175858L146.595 19.7868L175.154 0.175858C175.495 -0.0584946 175.945 -0.0584946 176.287 0.175858L204.845 19.7868L233.403 0.175858C233.859 -0.136872 234.482 -0.0213664 234.794 0.433846C235.107 0.889059 234.992 1.5116 234.536 1.82433L205.411 21.8243C205.07 22.0587 204.62 22.0587 204.279 21.8243L175.72 2.21334L147.162 21.8243C146.82 22.0587 146.37 22.0587 146.029 21.8243L117.47 2.21334L88.912 21.8243C88.5707 22.0587 88.1203 22.0587 87.779 21.8243L59.2207 2.21334L30.6623 21.8243C30.321 22.0587 29.8706 22.0587 29.5293 21.8243L0.970459 2L0.970515 0Z" fill="#8C9DD0"/>
</svg>
