<svg width="20" height="20" viewBox="0 0 20 20" fill="none" xmlns="http://www.w3.org/2000/svg">
<rect x="0.5" y="0.5" width="19" height="19" rx="1.5" fill="#3E245C" stroke="#3E245C"/>
<path fill-rule="evenodd" clip-rule="evenodd" d="M16.2369 5.24475C16.3145 5.32214 16.376 5.41407 16.418 5.51528C16.46 5.61649 16.4816 5.72499 16.4816 5.83457C16.4816 5.94415 16.46 6.05266 16.418 6.15387C16.376 6.25508 16.3145 6.34701 16.2369 6.4244L9.57219 14.7553C9.49481 14.8328 9.40287 14.8944 9.30166 14.9364C9.20045 14.9784 9.09195 15 8.98237 15C8.87279 15 8.76429 14.9784 8.66307 14.9364C8.56186 14.8944 8.46993 14.8328 8.39254 14.7553L3.98386 10.3449C3.8321 10.1878 3.74813 9.97734 3.75003 9.7589C3.75193 9.54047 3.83954 9.33152 3.994 9.17706C4.14847 9.0226 4.35741 8.93499 4.57585 8.93309C4.79428 8.93119 5.00472 9.01516 5.16184 9.16691L8.98237 12.9874L15.0572 5.24475C15.1346 5.16717 15.2265 5.10561 15.3278 5.06362C15.429 5.02162 15.5375 5 15.6471 5C15.7566 5 15.8651 5.02162 15.9663 5.06362C16.0676 5.10561 16.1595 5.16717 16.2369 5.24475V5.24475Z" fill="#FFDC00" stroke="#FFDC00" stroke-width="0.5" stroke-linecap="round" stroke-linejoin="round"/>
</svg>
