<svg width="44" height="44" viewBox="0 0 44 44" fill="none" xmlns="http://www.w3.org/2000/svg">
<circle r="20.0962" transform="matrix(-1 0 0 1 20.0961 23.9039)" fill="#FFDC00"/>
<path d="M4.30769 20.0962C4.30769 30.9188 13.0812 39.6923 23.9038 39.6923C34.7265 39.6923 43.5 30.9188 43.5 20.0962C43.5 9.2735 34.7265 0.5 23.9038 0.5C13.0812 0.5 4.30769 9.2735 4.30769 20.0962Z" stroke="white"/>
<path d="M19.625 27.2572H20.25V22.7428H19.625C19.2798 22.7428 19 22.463 19 22.1178V20.625C19 20.2798 19.2798 20 19.625 20H23.125C23.4702 20 23.75 20.2798 23.75 20.625V27.2572H24.375C24.7202 27.2572 25 27.537 25 27.8822V29.375C25 29.7202 24.7202 30 24.375 30H19.625C19.2798 30 19 29.7202 19 29.375V27.8822C19 27.537 19.2798 27.2572 19.625 27.2572ZM22 14C20.7573 14 19.75 15.0073 19.75 16.25C19.75 17.4927 20.7573 18.5 22 18.5C23.2427 18.5 24.25 17.4927 24.25 16.25C24.25 15.0073 23.2426 14 22 14Z" fill="#8C9DD0"/>
</svg>
