<svg width="267" height="287" viewBox="0 0 267 287" fill="none" xmlns="http://www.w3.org/2000/svg">
<path d="M134.683 283.061L18.3761 166.861C16.4048 164.892 16.4048 162.135 18.3761 160.165L134.683 43.9654C136.654 41.9959 139.414 41.9959 141.385 43.9654L257.692 160.165C259.663 162.135 259.663 164.892 257.692 166.861L141.385 283.061C139.808 285.031 136.654 285.031 134.683 283.061Z" stroke="#FFDD00" stroke-width="4" stroke-miterlimit="10"/>
<path d="M143.275 8.43416L143.345 8.36417L143.4 8.28179C144.413 6.76403 144.413 4.75046 143.4 3.23271L143.345 3.15032L143.275 3.08033C142.523 2.32886 141.587 1.90149 140.597 1.90149C139.606 1.90149 138.671 2.32886 137.919 3.08033C137.166 3.83178 136.738 4.7667 136.738 5.75725C136.738 6.7478 137.166 7.68271 137.919 8.43416C138.671 9.18563 139.606 9.613 140.597 9.613C141.587 9.613 142.523 9.18563 143.275 8.43416Z" fill="#8C9DD0" stroke="#8C9DD0" stroke-width="2"/>
<path d="M167.882 38.3704C168.635 39.1219 169.57 39.5493 170.56 39.5493C171.522 39.5493 172.431 39.1469 173.171 38.4364C174.042 37.8104 174.419 36.8021 174.419 35.8412C174.419 34.8464 174.024 33.8014 173.238 33.0166C172.486 32.2651 171.551 31.8378 170.56 31.8378C169.57 31.8378 168.635 32.2651 167.882 33.0166C167.13 33.7681 166.702 34.703 166.702 35.6935C166.702 36.6841 167.13 37.619 167.882 38.3704Z" fill="#8C9DD0" stroke="#8C9DD0" stroke-width="2"/>
<path d="M198.24 68.7005C198.993 69.452 199.928 69.8794 200.918 69.8794C201.909 69.8794 202.844 69.452 203.597 68.7005C204.349 67.9491 204.777 67.0142 204.777 66.0236C204.777 65.0331 204.349 64.0981 203.597 63.3467C202.844 62.5952 201.909 62.1678 200.918 62.1678C199.928 62.1678 198.993 62.5952 198.24 63.3467C197.488 64.0981 197.06 65.0331 197.06 66.0236C197.06 67.0142 197.488 67.9491 198.24 68.7005Z" fill="#8C9DD0" stroke="#8C9DD0" stroke-width="2"/>
<path d="M228.204 98.6367C228.956 99.3881 229.892 99.8155 230.882 99.8155C231.843 99.8155 232.753 99.4131 233.493 98.7027C234.364 98.0767 234.741 97.0684 234.741 96.1075C234.741 95.1127 234.346 94.0676 233.56 93.2828C232.808 92.5314 231.873 92.104 230.882 92.104C229.892 92.104 228.956 92.5314 228.204 93.2828C227.452 94.0343 227.024 94.9692 227.024 95.9598C227.024 96.9503 227.452 97.8852 228.204 98.6367Z" fill="#8C9DD0" stroke="#8C9DD0" stroke-width="2"/>
<path d="M258.562 128.967C259.314 129.718 260.25 130.146 261.24 130.146C262.231 130.146 263.166 129.718 263.918 128.967C264.67 128.215 265.099 127.28 265.099 126.29C265.099 125.299 264.67 124.364 263.918 123.613C263.166 122.861 262.231 122.434 261.24 122.434C260.25 122.434 259.314 122.861 258.562 123.613C257.81 124.364 257.382 125.299 257.382 126.29C257.382 127.28 257.81 128.215 258.562 128.967Z" fill="#8C9DD0" stroke="#8C9DD0" stroke-width="2"/>
<path d="M110.715 35.2193L111.391 34.5427L110.715 35.2193C111.467 35.9708 112.402 36.3982 113.393 36.3982C114.383 36.3982 115.319 35.9708 116.071 35.2193C116.823 34.4679 117.251 33.533 117.251 32.5424C117.251 31.5519 116.823 30.6169 116.071 29.8655C115.319 29.114 114.383 28.6866 113.393 28.6866C112.402 28.6866 111.467 29.114 110.715 29.8655C109.963 30.6169 109.534 31.5519 109.534 32.5424C109.534 33.533 109.963 34.4679 110.715 35.2193Z" fill="#8C9DD0" stroke="#8C9DD0" stroke-width="2"/>
<path d="M141.073 65.5493C141.825 66.3007 142.76 66.7281 143.751 66.7281C144.741 66.7281 145.677 66.3007 146.429 65.5493C147.181 64.7978 147.609 63.8629 147.609 62.8724C147.609 61.8818 147.181 60.9469 146.429 60.1954C145.677 59.444 144.741 59.0166 143.751 59.0166C142.76 59.0166 141.825 59.444 141.073 60.1954C140.321 60.9469 139.892 61.8818 139.892 62.8724C139.892 63.8629 140.321 64.7978 141.073 65.5493Z" fill="#8C9DD0" stroke="#8C9DD0" stroke-width="2"/>
<path d="M171.036 95.4856L171.743 94.7781L171.036 95.4856C171.789 96.237 172.724 96.6644 173.715 96.6644C174.676 96.6644 175.585 96.262 176.325 95.5516C177.196 94.9256 177.573 93.9172 177.573 92.9564C177.573 91.9615 177.178 90.9165 176.393 90.1317C175.64 89.3802 174.705 88.9529 173.715 88.9529C172.724 88.9529 171.789 89.3802 171.036 90.1317C170.284 90.8832 169.856 91.8181 169.856 92.8086C169.856 93.7992 170.284 94.7341 171.036 95.4856Z" fill="#8C9DD0" stroke="#8C9DD0" stroke-width="2"/>
<path d="M201.394 125.816C202.147 126.567 203.082 126.994 204.072 126.994C205.063 126.994 205.998 126.567 206.751 125.816C207.503 125.064 207.931 124.129 207.931 123.139C207.931 122.148 207.503 121.213 206.751 120.462C205.998 119.71 205.063 119.283 204.072 119.283C203.082 119.283 202.147 119.71 201.394 120.462C200.642 121.213 200.214 122.148 200.214 123.139C200.214 124.129 200.642 125.064 201.394 125.816Z" fill="#8C9DD0" stroke="#8C9DD0" stroke-width="2"/>
<path d="M237.234 150.55L237.179 150.468L237.109 150.398C236.356 149.647 235.421 149.219 234.431 149.219C233.44 149.219 232.505 149.647 231.752 150.398C231 151.15 230.572 152.084 230.572 153.075C230.572 154.066 231 155 231.752 155.752C232.505 156.503 233.44 156.931 234.431 156.931C235.421 156.931 236.356 156.503 237.109 155.752C237.771 155.09 237.993 154.085 237.993 153.223C237.993 152.329 237.759 151.338 237.234 150.55Z" fill="#8C9DD0" stroke="#8C9DD0" stroke-width="2"/>
<path d="M83.905 62.3982L84.6118 61.6907L83.905 62.3982C84.6572 63.1496 85.5925 63.577 86.5831 63.577C87.5737 63.577 88.509 63.1496 89.2612 62.3982C90.0133 61.6467 90.4415 60.7118 90.4415 59.7212C90.4415 58.7307 90.0133 57.7958 89.2612 57.0443C88.509 56.2928 87.5737 55.8655 86.5831 55.8655C85.5925 55.8655 84.6572 56.2928 83.905 57.0443C83.1529 57.7958 82.7247 58.7307 82.7247 59.7212C82.7247 60.7118 83.1529 61.6467 83.905 62.3982Z" fill="#8C9DD0" stroke="#8C9DD0" stroke-width="2"/>
<path d="M119.619 92.3344L119.689 92.2644L119.744 92.1821C120.757 90.6643 120.757 88.6507 119.744 87.133L119.689 87.0506L119.619 86.9806C118.867 86.2291 117.932 85.8018 116.941 85.8018C115.95 85.8018 115.015 86.2291 114.263 86.9806C113.511 87.732 113.083 88.667 113.083 89.6575C113.083 90.6481 113.511 91.583 114.263 92.3344C115.015 93.0859 115.95 93.5133 116.941 93.5133C117.932 93.5133 118.867 93.0859 119.619 92.3344Z" fill="#8C9DD0" stroke="#8C9DD0" stroke-width="2"/>
<path d="M144.227 122.664L144.934 121.957L144.227 122.664C144.979 123.416 145.914 123.843 146.905 123.843C147.895 123.843 148.831 123.416 149.583 122.664C150.335 121.913 150.763 120.978 150.763 119.987C150.763 118.997 150.335 118.062 149.583 117.31C148.831 116.559 147.895 116.132 146.905 116.132C145.914 116.132 144.979 116.559 144.227 117.31C143.475 118.062 143.046 118.997 143.046 119.987C143.046 120.978 143.475 121.913 144.227 122.664Z" fill="#8C9DD0" stroke="#8C9DD0" stroke-width="2"/>
<path d="M179.941 152.601L180.011 152.531L180.066 152.448C181.079 150.93 181.079 148.917 180.066 147.399L180.011 147.317L179.941 147.247C179.189 146.495 178.253 146.068 177.263 146.068C176.272 146.068 175.337 146.495 174.585 147.247C173.833 147.998 173.404 148.933 173.404 149.924C173.404 150.914 173.833 151.849 174.585 152.601C175.337 153.352 176.272 153.779 177.263 153.779C178.253 153.779 179.189 153.352 179.941 152.601Z" fill="#8C9DD0" stroke="#8C9DD0" stroke-width="2"/>
<path d="M204.549 182.931C205.301 183.682 206.236 184.11 207.227 184.11C208.217 184.11 209.153 183.682 209.905 182.931C210.657 182.179 211.085 181.244 211.085 180.254C211.085 179.263 210.657 178.328 209.905 177.577C209.153 176.826 208.217 176.398 207.227 176.398C206.236 176.398 205.301 176.826 204.549 177.577C203.796 178.328 203.368 179.263 203.368 180.254C203.368 181.244 203.796 182.179 204.549 182.931Z" fill="#8C9DD0" stroke="#8C9DD0" stroke-width="2"/>
<path d="M62.4515 89.1831L62.5215 89.1131L62.5765 89.0307C63.5893 87.5129 63.5893 85.4994 62.5765 83.9816L62.5215 83.8992L62.4515 83.8292C61.6993 83.0778 60.7639 82.6504 59.7734 82.6504C58.7828 82.6504 57.8475 83.0778 57.0953 83.8292C56.3432 84.5807 55.915 85.5156 55.915 86.5061C55.915 87.4967 56.3432 88.4316 57.0953 89.1831C57.8475 89.9345 58.7828 90.3619 59.7734 90.3619C60.7639 90.3619 61.6993 89.9345 62.4515 89.1831Z" fill="#8C9DD0" stroke="#8C9DD0" stroke-width="2"/>
<path d="M87.0591 119.513C87.8112 120.265 88.7466 120.692 89.7371 120.692C90.7277 120.692 91.6631 120.265 92.4152 119.513C93.2007 118.728 93.5955 117.683 93.5955 116.689C93.5955 115.728 93.2186 114.719 92.3478 114.093C91.6075 113.383 90.6983 112.98 89.7371 112.98C88.7466 112.98 87.8112 113.408 87.0591 114.159C86.3069 114.911 85.8788 115.846 85.8788 116.836C85.8788 117.827 86.3069 118.762 87.0591 119.513Z" fill="#8C9DD0" stroke="#8C9DD0" stroke-width="2"/>
<path d="M122.773 149.449L122.843 149.379L122.898 149.297C123.911 147.779 123.911 145.766 122.898 144.248L122.843 144.166L122.773 144.096C122.021 143.344 121.086 142.917 120.095 142.917C119.105 142.917 118.169 143.344 117.417 144.096C116.665 144.847 116.237 145.782 116.237 146.773C116.237 147.763 116.665 148.698 117.417 149.449C118.169 150.201 119.105 150.628 120.095 150.628C121.086 150.628 122.021 150.201 122.773 149.449Z" fill="#8C9DD0" stroke="#8C9DD0" stroke-width="2"/>
<path d="M147.381 179.779C148.133 180.531 149.068 180.958 150.059 180.958C151.05 180.958 151.985 180.531 152.737 179.779C153.489 179.028 153.917 178.093 153.917 177.103C153.917 176.112 153.489 175.177 152.737 174.426C151.985 173.674 151.05 173.247 150.059 173.247C149.068 173.247 148.133 173.674 147.381 174.426C146.629 175.177 146.201 176.112 146.201 177.103C146.201 178.093 146.629 179.028 147.381 179.779Z" fill="#8C9DD0" stroke="#8C9DD0" stroke-width="2"/>
<path d="M183.095 209.716L183.165 209.646L183.22 209.563C184.233 208.046 184.233 206.032 183.22 204.514L183.165 204.432L183.095 204.362C182.343 203.61 181.407 203.183 180.417 203.183C179.426 203.183 178.491 203.61 177.739 204.362C176.987 205.113 176.559 206.048 176.559 207.039C176.559 208.029 176.987 208.964 177.739 209.716C178.491 210.467 179.426 210.895 180.417 210.895C181.407 210.895 182.343 210.467 183.095 209.716Z" fill="#8C9DD0" stroke="#8C9DD0" stroke-width="2"/>
<path d="M29.8914 115.968C30.6436 116.72 31.5789 117.147 32.5695 117.147C33.5307 117.147 34.4399 116.745 35.1801 116.034C36.051 115.408 36.4279 114.4 36.4279 113.439C36.4279 112.444 36.033 111.399 35.2476 110.614C34.4954 109.863 33.56 109.436 32.5695 109.436C31.5789 109.436 30.6436 109.863 29.8914 110.614C29.1393 111.366 28.7111 112.301 28.7111 113.291C28.7111 114.282 29.1393 115.217 29.8914 115.968Z" fill="#8C9DD0" stroke="#8C9DD0" stroke-width="2"/>
<path d="M65.6056 146.298L65.6757 146.228L65.7306 146.146C66.7434 144.628 66.7434 142.615 65.7306 141.097L65.6757 141.014L65.6056 140.944C64.8534 140.193 63.9181 139.766 62.9275 139.766C61.937 139.766 61.0016 140.193 60.2494 140.944C59.4973 141.696 59.0691 142.631 59.0691 143.621C59.0691 144.612 59.4973 145.547 60.2494 146.298C61.0016 147.05 61.937 147.477 62.9275 147.477C63.9181 147.477 64.8534 147.05 65.6056 146.298Z" fill="#8C9DD0" stroke="#8C9DD0" stroke-width="2"/>
<path d="M90.2132 176.235C90.9654 176.986 91.9007 177.413 92.8913 177.413C93.8524 177.413 94.7617 177.011 95.5019 176.301C96.3728 175.675 96.7497 174.666 96.7497 173.705C96.7497 172.711 96.3548 171.665 95.5694 170.881C94.8172 170.129 93.8818 169.702 92.8913 169.702C91.9007 169.702 90.9654 170.129 90.2132 170.881C89.461 171.632 89.0329 172.567 89.0329 173.558C89.0329 174.548 89.461 175.483 90.2132 176.235Z" fill="#8C9DD0" stroke="#8C9DD0" stroke-width="2"/>
<path d="M120.571 206.565C121.323 207.316 122.259 207.743 123.249 207.743C124.24 207.743 125.175 207.316 125.927 206.565C126.679 205.813 127.108 204.878 127.108 203.888C127.108 202.897 126.679 201.962 125.927 201.211C125.175 200.459 124.24 200.032 123.249 200.032C122.259 200.032 121.323 200.459 120.571 201.211C119.819 201.962 119.391 202.897 119.391 203.888C119.391 204.878 119.819 205.813 120.571 206.565Z" fill="#8C9DD0" stroke="#8C9DD0" stroke-width="2"/>
<path d="M150.535 236.895C151.287 237.646 152.222 238.073 153.213 238.073C154.204 238.073 155.139 237.646 155.891 236.895C156.677 236.11 157.071 235.065 157.071 234.07C157.071 233.109 156.694 232.101 155.824 231.475C155.083 230.764 154.174 230.362 153.213 230.362C152.222 230.362 151.287 230.789 150.535 231.541C149.783 232.292 149.355 233.227 149.355 234.218C149.355 235.208 149.783 236.143 150.535 236.895Z" fill="#8C9DD0" stroke="#8C9DD0" stroke-width="2"/>
<path d="M8.43792 143.147L8.50798 143.077L8.56295 142.995C9.57572 141.477 9.57572 139.463 8.56295 137.946L8.50798 137.863L8.43792 137.793C7.68575 137.042 6.75039 136.615 5.75983 136.615C4.76928 136.615 3.83392 137.042 3.08175 137.793C2.32961 138.545 1.90145 139.48 1.90145 140.47C1.90145 141.461 2.32961 142.396 3.08175 143.147L3.78854 142.44L3.08175 143.147C3.83392 143.899 4.76928 144.326 5.75983 144.326C6.75039 144.326 7.68575 143.899 8.43792 143.147Z" fill="#8C9DD0" stroke="#8C9DD0" stroke-width="2"/>
<path d="M33.0455 173.083C33.7977 173.835 34.733 174.262 35.7236 174.262C36.6848 174.262 37.594 173.86 38.3343 173.149C39.2051 172.523 39.582 171.515 39.582 170.554C39.582 169.559 39.1872 168.514 38.4017 167.73C37.6495 166.978 36.7142 166.551 35.7236 166.551C34.733 166.551 33.7977 166.978 33.0455 167.73C32.2934 168.481 31.8652 169.416 31.8652 170.407C31.8652 171.397 32.2934 172.332 33.0455 173.083Z" fill="#8C9DD0" stroke="#8C9DD0" stroke-width="2"/>
<path d="M63.4035 203.413C64.1556 204.165 65.091 204.592 66.0816 204.592C67.0721 204.592 68.0075 204.165 68.7596 203.413C69.5118 202.662 69.9399 201.727 69.9399 200.736C69.9399 199.746 69.5118 198.811 68.7596 198.059C68.0075 197.308 67.0721 196.881 66.0816 196.881C65.091 196.881 64.1556 197.308 63.4035 198.059C62.6513 198.811 62.2232 199.746 62.2232 200.736C62.2232 201.727 62.6513 202.662 63.4035 203.413Z" fill="#8C9DD0" stroke="#8C9DD0" stroke-width="2"/>
<path d="M93.3673 233.35C94.1194 234.101 95.0548 234.528 96.0453 234.528C97.0065 234.528 97.9157 234.126 98.656 233.416C99.5268 232.79 99.9037 231.781 99.9037 230.82C99.9037 229.826 99.5089 228.78 98.7234 227.996C97.9712 227.244 97.0359 226.817 96.0453 226.817C95.0548 226.817 94.1194 227.244 93.3673 227.996C92.6151 228.747 92.187 229.682 92.187 230.673C92.187 231.663 92.6151 232.598 93.3673 233.35Z" fill="#8C9DD0" stroke="#8C9DD0" stroke-width="2"/>
<path d="M123.18 265.533C123.932 266.284 124.868 266.712 125.858 266.712C126.82 266.712 127.729 266.309 128.469 265.599C129.34 264.973 129.717 263.964 129.717 263.003C129.717 262.009 129.322 260.964 128.536 260.179C127.784 259.427 126.849 259 125.858 259C124.868 259 123.932 259.427 123.18 260.179C122.428 260.93 122 261.865 122 262.856C122 263.846 122.428 264.781 123.18 265.533Z" fill="#8C9DD0" stroke="#8C9DD0" stroke-width="2"/>
</svg>
