<svg width="41" height="41" viewBox="0 0 41 41" fill="none" xmlns="http://www.w3.org/2000/svg">
<path d="M20.48 8.96875C22.9566 8.96875 24.9644 6.96103 24.9644 4.48438C24.9644 2.00772 22.9566 0 20.48 0C18.0033 0 15.9956 2.00772 15.9956 4.48438C15.9956 6.96103 18.0033 8.96875 20.48 8.96875Z" fill="#3E245C"/>
<path d="M31.6012 22.2536L30.774 19.4981V19.4893L28.9754 13.4947H28.9714L28.7704 12.818C28.5498 12.076 28.0954 11.4251 27.4749 10.9622C26.8545 10.4994 26.1011 10.2492 25.327 10.2491H15.7177C14.9435 10.2488 14.19 10.4988 13.5694 10.9618C12.9489 11.4247 12.4946 12.0758 12.2743 12.818L12.0733 13.4947H12.0685L10.27 19.4893V19.4981L9.43955 22.2536C9.1897 23.0856 9.62373 23.9881 10.4461 24.2668C10.6499 24.3361 10.8655 24.3637 11.0801 24.3479C11.2948 24.332 11.504 24.2731 11.6954 24.1746C11.8867 24.0761 12.0562 23.94 12.1938 23.7745C12.3314 23.609 12.4342 23.4175 12.4961 23.2113L14.5445 16.3847L14.7183 15.8057C14.769 15.6642 14.8679 15.5451 14.9976 15.4691C15.1274 15.3932 15.2797 15.3653 15.4279 15.3903C15.5761 15.4153 15.7108 15.4916 15.8084 15.6059C15.9061 15.7202 15.9604 15.8652 15.9619 16.0155C15.9619 16.0588 15.9573 16.1021 15.9483 16.1444L12.4465 27.819C12.3891 28.0103 12.3772 28.2124 12.4117 28.4091C12.4463 28.6058 12.5263 28.7917 12.6455 28.952C12.7647 29.1122 12.9197 29.2424 13.0982 29.3321C13.2766 29.4218 13.4736 29.4686 13.6733 29.4686H15.9955V38.6528C15.9955 39.9709 16.8388 40.9999 17.9174 40.9999C18.9961 40.9999 19.8393 39.9709 19.8393 38.6528V29.4686H21.1205V38.6528C21.1205 39.9709 21.9638 40.9999 23.0424 40.9999C24.1211 40.9999 24.9643 39.9709 24.9643 38.6528V29.4686H27.3666C27.5664 29.4687 27.7635 29.4221 27.942 29.3324C28.1206 29.2427 28.2757 29.1126 28.3949 28.9523C28.5142 28.792 28.5944 28.6061 28.629 28.4093C28.6636 28.2125 28.6517 28.0104 28.5942 27.819L25.0916 16.1428C25.0828 16.101 25.0785 16.0583 25.0788 16.0155C25.0796 15.8647 25.1336 15.7191 25.2312 15.6042C25.3288 15.4893 25.4639 15.4125 25.6125 15.3873C25.7612 15.3622 25.9139 15.3903 26.0439 15.4666C26.1739 15.543 26.2728 15.6628 26.3232 15.8049L26.497 16.3839L28.5446 23.2105C28.6068 23.4163 28.7097 23.6075 28.8474 23.7727C28.985 23.9379 29.1545 24.0736 29.3457 24.1719C29.537 24.2702 29.746 24.3289 29.9604 24.3447C30.1749 24.3604 30.3902 24.3328 30.5938 24.2636C31.4162 23.9881 31.8502 23.0856 31.6012 22.2536Z" fill="#3E245C"/>
</svg>
