<svg width="41" height="41" viewBox="0 0 41 41" fill="none" xmlns="http://www.w3.org/2000/svg">
<path d="M20.5 8.96875C22.9767 8.96875 24.9844 6.96103 24.9844 4.48438C24.9844 2.00772 22.9767 0 20.5 0C18.0233 0 16.0156 2.00772 16.0156 4.48438C16.0156 6.96103 18.0233 8.96875 20.5 8.96875Z" fill="#3E245C"/>
<path d="M24.3438 10.25H16.6563C15.2983 10.254 13.997 10.7953 13.0368 11.7555C12.0765 12.7158 11.5353 14.017 11.5312 15.375V23.985C11.5312 24.8538 12.2063 25.593 13.0744 25.6242C13.2895 25.6321 13.504 25.5965 13.705 25.5196C13.9061 25.4426 14.0896 25.326 14.2445 25.1766C14.3995 25.0271 14.5227 24.848 14.6069 24.6499C14.6911 24.4518 14.7344 24.2387 14.7344 24.0234V16.0372C14.7323 15.872 14.7929 15.712 14.9038 15.5895C15.0147 15.467 15.1679 15.3909 15.3326 15.3766C15.4202 15.3708 15.5081 15.383 15.5908 15.4126C15.6735 15.4422 15.7492 15.4885 15.8132 15.5485C15.8773 15.6086 15.9283 15.6812 15.9631 15.7619C15.998 15.8425 16.0158 15.9294 16.0156 16.0172V39.1582C16.0156 39.6467 16.2097 40.1151 16.5551 40.4606C16.9005 40.806 17.369 41 17.8574 41C18.3459 41 18.8144 40.806 19.1598 40.4606C19.5052 40.1151 19.6992 39.6467 19.6992 39.1582V27.7343C19.6964 27.5275 19.7718 27.3272 19.9103 27.1737C20.0489 27.0201 20.2404 26.9246 20.4464 26.9062C20.5559 26.8989 20.6659 26.9142 20.7693 26.9511C20.8727 26.988 20.9675 27.0458 21.0476 27.1209C21.1277 27.1961 21.1916 27.2868 21.2351 27.3877C21.2787 27.4885 21.301 27.5972 21.3008 27.707V39.1582C21.3008 39.6467 21.4948 40.1151 21.8402 40.4606C22.1856 40.806 22.6541 41 23.1426 41C23.6311 41 24.0995 40.806 24.4449 40.4606C24.7903 40.1151 24.9844 39.6467 24.9844 39.1582V16.0372C24.9823 15.872 25.0429 15.712 25.1538 15.5895C25.2647 15.467 25.4179 15.3909 25.5826 15.3766C25.6702 15.3708 25.7581 15.383 25.8408 15.4126C25.9235 15.4422 25.9992 15.4885 26.0633 15.5485C26.1273 15.6086 26.1783 15.6812 26.2131 15.7619C26.248 15.8425 26.2658 15.9294 26.2656 16.0172V23.9866C26.2656 24.8554 26.9407 25.5946 27.8087 25.6258C28.024 25.6337 28.2386 25.598 28.4398 25.521C28.6409 25.444 28.8245 25.3272 28.9795 25.1776C29.1345 25.028 29.2577 24.8487 29.3417 24.6504C29.4258 24.4521 29.469 24.2388 29.4688 24.0234V15.375C29.4647 14.017 28.9235 12.7158 27.9632 11.7555C27.003 10.7953 25.7018 10.254 24.3438 10.25Z" fill="#3E245C"/>
</svg>
