<svg width="41" height="41" viewBox="0 0 41 41" fill="none" xmlns="http://www.w3.org/2000/svg">
<path d="M20.48 8.96875C22.9566 8.96875 24.9644 6.96103 24.9644 4.48438C24.9644 2.00772 22.9566 0 20.48 0C18.0033 0 15.9956 2.00772 15.9956 4.48438C15.9956 6.96103 18.0033 8.96875 20.48 8.96875Z" fill="#8C9DD0"/>
<path d="M31.6012 22.2535L30.774 19.498V19.4892L28.9754 13.4946H28.9714L28.7704 12.8179C28.5498 12.076 28.0954 11.4251 27.475 10.9622C26.8545 10.4993 26.1012 10.2492 25.3271 10.249H15.7177C14.9435 10.2488 14.19 10.4988 13.5695 10.9617C12.9489 11.4247 12.4947 12.0758 12.2743 12.8179L12.0733 13.4946H12.0685L10.27 19.4892V19.498L9.43958 22.2535C9.18973 23.0855 9.62376 23.988 10.4462 24.2667C10.6499 24.3361 10.8655 24.3636 11.0802 24.3478C11.2948 24.332 11.504 24.273 11.6954 24.1745C11.8867 24.076 12.0563 23.9399 12.1938 23.7744C12.3314 23.6089 12.4343 23.4174 12.4962 23.2113L14.5446 16.3846L14.7183 15.8056C14.7691 15.6642 14.868 15.545 14.9977 15.4691C15.1274 15.3931 15.2797 15.3652 15.4279 15.3902C15.5761 15.4152 15.7109 15.4915 15.8085 15.6058C15.9061 15.7201 15.9604 15.8651 15.9619 16.0155C15.9619 16.0588 15.9573 16.102 15.9483 16.1444L12.4465 27.819C12.3891 28.0103 12.3772 28.2123 12.4117 28.409C12.4463 28.6057 12.5264 28.7917 12.6456 28.9519C12.7647 29.1122 12.9197 29.2424 13.0982 29.3321C13.2766 29.4218 13.4736 29.4685 13.6733 29.4686H15.9956V38.6527C15.9956 39.9708 16.8388 40.9998 17.9174 40.9998C18.9961 40.9998 19.8393 39.9708 19.8393 38.6527V29.4686H21.1206V38.6527C21.1206 39.9708 21.9638 40.9998 23.0424 40.9998C24.1211 40.9998 24.9643 39.9708 24.9643 38.6527V29.4686H27.3667C27.5665 29.4686 27.7635 29.422 27.942 29.3323C28.1206 29.2427 28.2757 29.1125 28.395 28.9522C28.5142 28.792 28.5944 28.606 28.629 28.4092C28.6636 28.2125 28.6517 28.0103 28.5943 27.819L25.0916 16.1428C25.0829 16.1009 25.0786 16.0582 25.0788 16.0155C25.0796 15.8647 25.1336 15.719 25.2312 15.6041C25.3289 15.4892 25.4639 15.4124 25.6125 15.3873C25.7612 15.3621 25.914 15.3902 26.044 15.4666C26.174 15.543 26.2729 15.6627 26.3232 15.8048L26.497 16.3838L28.5446 23.2105C28.6068 23.4163 28.7098 23.6075 28.8474 23.7726C28.985 23.9378 29.1545 24.0736 29.3458 24.1718C29.537 24.2701 29.746 24.3289 29.9605 24.3446C30.1749 24.3604 30.3903 24.3328 30.5938 24.2635C31.4162 23.988 31.8502 23.0855 31.6012 22.2535Z" fill="#8C9DD0"/>
</svg>
