<svg width="100" height="115" viewBox="0 0 100 115" fill="none" xmlns="http://www.w3.org/2000/svg">
<g clip-path="url(#clip0)">
<path d="M86.674 -1.50837e-05L36.7841 3.26085C27.7533 3.91303 22.0264 11.7391 24.2291 20.7609L31.718 51.413C33.5903 58.6956 40.0881 64.6739 47.3568 66.3043V73.1522C47.3568 73.913 48.2379 74.3478 48.8987 73.913L58.4802 66.3043L72.3568 65.4348C81.4978 64.8913 90.5286 56.9565 92.511 47.9348L99.5595 15.4348C101.652 6.41303 95.815 -0.543493 86.674 -1.50837e-05Z" fill="#3F245C"/>
<path d="M43.5022 74.1304L39.2071 74.0217L39.978 70C39.978 69.8913 39.8679 69.7826 39.7577 69.8913L36.4538 73.913L36.2335 76.3043L38.7666 76.6304L43.6124 74.3478C43.7225 74.2391 43.7225 74.1304 43.5022 74.1304Z" fill="#FFDD00"/>
<path d="M39.4273 76.9565C38.1057 72.9348 33.8106 70.6522 29.6255 71.8478C25.8811 73.0435 23.5683 76.7391 24.2291 80.5435L0 101.957C1.76211 104.022 4.40529 105 7.26872 105.217L2.53304 109.457L3.52423 110.543L1.32159 112.5L3.63436 115L15.4185 104.565C20.4846 108.043 27.4229 107.717 32.0485 103.261C36.674 98.8044 37.2247 91.8478 33.8106 86.8478C34.0308 86.8478 34.141 86.7391 34.3612 86.7391C38.4361 85.4348 40.7489 81.087 39.4273 76.9565Z" fill="#FFDD00"/>
<path d="M23.4581 98.6957C27.9736 94.7826 28.304 88.0435 24.3392 83.587L8.14978 97.8261C12.2247 102.283 19.0529 102.609 23.4581 98.6957Z" fill="#3F245C"/>
<path d="M27.4229 111.304C27.2027 111.304 26.9824 111.087 27.0925 110.87C27.5331 107.065 25.6608 106.196 25.5507 106.087C25.3304 105.978 25.2203 105.761 25.3304 105.543C25.4406 105.326 25.6608 105.217 25.8811 105.326C25.9912 105.326 28.4141 106.413 27.8635 110.87C27.8635 111.196 27.6432 111.304 27.4229 111.304Z" fill="#3F245C"/>
<path d="M20.4846 111.522C20.3745 111.522 20.2644 111.522 20.2644 111.413C20.1542 111.304 20.0441 110.978 20.2644 110.87C22.9075 107.935 21.9164 106.196 21.8062 106.196C21.6961 105.978 21.8062 105.761 21.9164 105.652C22.1366 105.543 22.3569 105.543 22.467 105.761C22.5772 105.87 23.8987 108.043 20.815 111.413C20.5948 111.522 20.5948 111.522 20.4846 111.522Z" fill="#3F245C"/>
<path d="M35.9031 76.5217C36.2335 77.3913 35.6828 78.3696 34.8018 78.6957C33.9207 79.0217 32.9295 78.4783 32.5991 77.6087C32.2687 76.7391 32.8194 75.7609 33.7004 75.4348C34.6916 75.2174 35.6828 75.6522 35.9031 76.5217Z" fill="#3F245C"/>
<path d="M39.7577 16.8478C39.8678 16.8478 39.978 16.8478 40.0881 16.8478C40.3084 16.8478 40.4185 16.9565 40.4185 16.9565C40.5286 17.0652 40.5286 17.1739 40.5286 17.2826C40.5286 17.5 40.5286 17.6087 40.5286 17.6087V21.1956C40.5286 21.413 40.4185 21.6304 40.3084 21.8478C40.1982 22.0652 39.978 22.2826 39.8678 22.5C39.7577 22.7174 39.5374 22.9348 39.4273 23.0435C39.3172 23.2609 39.207 23.3695 39.0969 23.3695L37.4449 25V25.2174V30.5435C37.4449 30.5435 37.4449 30.6522 37.4449 30.8696C37.4449 31.0869 37.3348 31.1956 37.3348 31.1956C37.2247 31.3043 37.1145 31.3043 37.0044 31.3043C36.7841 31.3043 36.674 31.3043 36.674 31.3043C36.674 31.3043 36.5639 31.3043 36.3436 31.3043C36.1233 31.3043 36.0132 31.1956 35.9031 31.1956C35.793 31.0869 35.793 30.9782 35.793 30.8696C35.793 30.7609 35.793 30.5435 35.793 30.5435V25.2174L35.6828 25.1087L34.0308 23.4782C33.9207 23.3696 33.9207 23.2609 33.7004 23.1522C33.4802 23.0435 33.37 22.8261 33.2599 22.6087C33.0397 22.3913 32.9295 22.1739 32.8194 21.9565C32.7093 21.7391 32.5991 21.5217 32.5991 21.3043V17.7174C32.5991 17.7174 32.5991 17.6087 32.5991 17.3913C32.5991 17.1739 32.5991 17.0652 32.7093 17.0652C32.8194 16.9565 32.9295 16.9565 33.1498 16.9565C33.37 16.9565 33.4802 16.9565 33.4802 16.9565C33.4802 16.9565 33.5903 16.9565 33.8106 16.9565C34.0308 16.9565 34.141 17.0652 34.141 17.0652C34.2511 17.1739 34.2511 17.2826 34.2511 17.3913C34.2511 17.6087 34.2511 17.7174 34.2511 17.7174V20.8696C34.2511 20.9782 34.2511 21.0869 34.3612 21.1956C34.4714 21.3043 34.4714 21.413 34.5815 21.5217C34.6916 21.6304 34.6916 21.7391 34.8018 21.8478C34.9119 21.9565 34.9119 21.9565 34.9119 21.9565L36.5639 23.5869L38.2159 21.9565L38.326 21.8478C38.5463 21.7391 38.5463 21.7391 38.6564 21.6304C38.7665 21.5217 38.7665 21.413 38.8767 21.3043C38.9868 21.1956 38.9868 21.0869 38.9868 20.9782V17.8261C38.9868 17.8261 38.9868 17.7174 38.9868 17.5C38.9868 17.2826 39.0969 17.1739 39.0969 17.1739C39.207 17.0652 39.3172 17.0652 39.4273 17.0652C39.5374 17.0652 39.7577 16.8478 39.7577 16.8478Z" fill="#FFDD00"/>
<path d="M43.9428 19.0217C43.8326 19.1304 43.7225 19.2391 43.7225 19.4565C43.7225 19.6739 43.6124 19.7826 43.6124 20C43.6124 20.2174 43.6124 20.3261 43.6124 20.5435C43.6124 20.7609 43.6124 20.8695 43.6124 20.8695V23.1522H48.4582C48.4582 23.1522 48.5683 23.1522 48.7886 23.1522C49.0088 23.1522 49.119 23.2609 49.119 23.2609C49.2291 23.3695 49.2291 23.4782 49.2291 23.5869C49.2291 23.8043 49.2291 23.913 49.2291 23.913C49.2291 23.913 49.2291 24.0217 49.2291 24.2391C49.2291 24.4565 49.119 24.5652 49.119 24.5652C49.0088 24.6739 48.8987 24.6739 48.7886 24.6739C48.6784 24.6739 48.4582 24.6739 48.4582 24.6739H43.6124V27.2826C43.6124 27.3913 43.6124 27.5 43.6124 27.7174C43.6124 27.9348 43.6124 28.0435 43.6124 28.2609C43.6124 28.4782 43.7225 28.5869 43.7225 28.8043C43.8326 29.0217 43.8326 29.1304 43.9428 29.2391C44.0529 29.3478 44.163 29.4565 44.3833 29.4565C44.6035 29.5652 44.8238 29.5652 44.9339 29.5652C45.1542 29.5652 45.2643 29.5652 45.4846 29.5652C45.7049 29.5652 45.815 29.5652 45.815 29.5652H49.0088C49.119 29.5652 49.2291 29.5652 49.3392 29.5652C49.5595 29.5652 49.6696 29.5652 49.6696 29.6739C49.7798 29.7826 49.7798 29.8913 49.7798 30.1087C49.7798 30.3261 49.7798 30.4348 49.7798 30.4348C49.7798 30.4348 49.7798 30.5435 49.7798 30.7609C49.7798 30.9782 49.6696 31.0869 49.6696 31.0869C49.5595 31.1956 49.4494 31.1956 49.3392 31.1956C49.119 31.1956 49.0088 31.1956 49.0088 31.1956H45.815C45.7049 31.1956 45.4846 31.1956 45.1542 31.1956C44.8238 31.1956 44.4934 31.1956 44.163 31.0869C43.8326 30.9782 43.5022 30.9782 43.1718 30.8695C42.8414 30.7609 42.6212 30.6522 42.4009 30.4348C42.1806 30.2174 42.0705 30 41.9604 29.6739C41.9604 29.6739 41.8502 29.3478 41.8502 29.0217C41.8502 28.6956 41.7401 28.3695 41.7401 28.0435C41.7401 27.7174 41.7401 27.6087 41.7401 27.5V24.0217V20.8695C41.7401 20.7609 41.7401 20.5435 41.7401 20.3261C41.7401 20 41.7401 19.6739 41.8502 19.3478C41.8502 19.0217 41.9604 18.6956 42.0705 18.3695C42.1806 18.0435 42.2908 17.8261 42.511 17.6087C42.7313 17.3913 42.9516 17.2826 43.282 17.1739C43.6124 17.0652 43.9428 17.0652 44.2732 16.9565C44.6035 16.8478 44.9339 16.8478 45.2643 16.8478C45.5947 16.8478 45.815 16.8478 45.9251 16.8478H49.119C49.2291 16.8478 49.3392 16.8478 49.4494 16.8478C49.6696 16.8478 49.7798 16.9565 49.7798 16.9565C49.8899 17.0652 49.8899 17.1739 49.8899 17.2826C49.8899 17.5 49.8899 17.6087 49.8899 17.6087C49.8899 17.7174 49.8899 17.8261 49.8899 17.9348C49.8899 18.1522 49.7798 18.2609 49.7798 18.2609C49.6696 18.3695 49.5595 18.3695 49.4494 18.3695C49.2291 18.3695 49.119 18.3695 49.119 18.3695H45.9251C45.815 18.3695 45.7049 18.3695 45.5947 18.3695C45.3745 18.3695 45.2643 18.3695 45.0441 18.3695C44.8238 18.3695 44.6035 18.4782 44.4934 18.4782C44.163 18.8043 44.0529 18.913 43.9428 19.0217Z" fill="#FFDD00"/>
<path d="M58.9208 29.8913C59.0309 30 59.0309 30.1087 59.0309 30.3261C59.0309 30.5435 59.0309 30.6522 59.0309 30.6522C59.0309 30.6522 59.0309 30.7609 59.0309 30.9782C59.0309 31.1956 58.9208 31.3043 58.9208 31.3043C58.8106 31.413 58.7005 31.413 58.5904 31.413C58.3701 31.413 58.26 31.413 58.26 31.413H55.0661C54.956 31.413 54.7357 31.413 54.4053 31.413C54.0749 31.413 53.7445 31.413 53.4141 31.3043C53.0837 31.1956 52.7533 31.1956 52.423 31.0869C52.0926 30.9782 51.8723 30.8695 51.652 30.6522C51.4318 30.4348 51.3216 30.2174 51.2115 29.8913C51.1014 29.5652 51.1014 29.2391 50.9912 28.913C50.9912 28.5869 50.8811 28.2609 50.8811 27.9348C50.8811 27.6087 50.8811 27.5 50.8811 27.3913V17.6087C50.8811 17.6087 50.8811 17.5 50.8811 17.2826C50.8811 17.0652 50.8811 16.9565 50.9912 16.9565C51.1014 16.8478 51.2115 16.8478 51.4318 16.8478C51.652 16.8478 51.7622 16.8478 51.7622 16.8478C51.7622 16.8478 51.8723 16.8478 52.0926 16.8478C52.3128 16.8478 52.423 16.9565 52.423 16.9565C52.5331 17.0652 52.5331 17.1739 52.5331 17.2826C52.5331 17.5 52.5331 17.6087 52.5331 17.6087V27.3913C52.5331 27.5 52.5331 27.6087 52.5331 27.8261C52.5331 28.0435 52.5331 28.1522 52.5331 28.3695C52.5331 28.5869 52.6432 28.6956 52.6432 28.913C52.7533 29.1304 52.7534 29.2391 52.8635 29.3478C52.9736 29.4565 53.0837 29.5652 53.304 29.5652C53.5243 29.6739 53.7445 29.6739 53.8547 29.6739C54.0749 29.6739 54.1851 29.6739 54.4053 29.6739C54.6256 29.6739 54.7357 29.6739 54.7357 29.6739H57.9296C58.0397 29.6739 58.1498 29.6739 58.26 29.6739C58.7005 29.7826 58.8106 29.7826 58.9208 29.8913Z" fill="#FFDD00"/>
<path d="M68.1717 29.8913C68.2819 30 68.2819 30.1087 68.2819 30.3261C68.2819 30.5435 68.2819 30.6522 68.2819 30.6522C68.2819 30.6522 68.2819 30.7609 68.2819 30.9782C68.2819 31.1956 68.1717 31.3043 68.1717 31.3043C68.0616 31.413 67.9515 31.413 67.8413 31.413C67.6211 31.413 67.5109 31.413 67.5109 31.413H64.3171C64.207 31.413 63.9867 31.413 63.6563 31.413C63.3259 31.413 62.9955 31.413 62.6651 31.3043C62.3347 31.1956 62.0043 31.1956 61.6739 31.0869C61.3435 30.9782 61.1233 30.8695 60.903 30.6522C60.6827 30.4348 60.5726 30.2174 60.4625 29.8913C60.3523 29.5652 60.3523 29.2391 60.2422 28.913C60.2422 28.5869 60.1321 28.2609 60.1321 27.9348C60.1321 27.6087 60.1321 27.5 60.1321 27.3913V17.6087C60.1321 17.6087 60.1321 17.5 60.1321 17.2826C60.1321 17.0652 60.1321 16.9565 60.2422 16.9565C60.3523 16.8478 60.4625 16.8478 60.6827 16.8478C60.903 16.8478 61.0131 16.8478 61.0131 16.8478C61.0131 16.8478 61.1233 16.8478 61.3435 16.8478C61.5638 16.8478 61.6739 16.9565 61.6739 16.9565C61.7841 17.0652 61.7841 17.1739 61.7841 17.2826C61.7841 17.5 61.7841 17.6087 61.7841 17.6087V27.3913C61.7841 27.5 61.7841 27.6087 61.7841 27.8261C61.7841 28.0435 61.7841 28.1522 61.7841 28.3695C61.7841 28.5869 61.8942 28.6956 61.8942 28.913C62.0043 29.1304 62.0043 29.2391 62.1145 29.3478C62.2246 29.4565 62.3347 29.5652 62.555 29.5652C62.7753 29.6739 62.9955 29.6739 63.1057 29.6739C63.3259 29.6739 63.436 29.6739 63.6563 29.6739C63.8766 29.6739 63.9867 29.6739 63.9867 29.6739H67.1805C67.2907 29.6739 67.4008 29.6739 67.5109 29.6739C67.9515 29.7826 68.0616 29.7826 68.1717 29.8913Z" fill="#FFDD00"/>
<path d="M77.5331 27.5C77.5331 27.6087 77.5331 27.8261 77.5331 28.0435C77.5331 28.3696 77.5331 28.6956 77.423 29.0217C77.423 29.3478 77.3128 29.6739 77.2027 30C77.0926 30.3261 76.9824 30.5435 76.7622 30.7609C76.5419 30.9782 76.3216 31.0869 75.9913 31.1956C75.6609 31.3043 75.3305 31.413 75.0001 31.413C74.6697 31.413 74.3393 31.5217 74.0089 31.5217C73.6785 31.5217 73.5683 31.5217 73.4582 31.5217C73.3481 31.5217 73.1278 31.5217 72.7974 31.5217C72.467 31.5217 72.1366 31.5217 71.8062 31.413C71.4758 31.3043 71.1454 31.3043 70.815 31.1956C70.4846 31.0869 70.2644 30.9782 70.0441 30.7609C69.8239 30.5435 69.7137 30.3261 69.6036 30C69.4935 29.6739 69.4935 29.3478 69.3833 29.0217C69.3833 28.6956 69.2732 28.3696 69.2732 28.0435C69.2732 27.7174 69.2732 27.6087 69.2732 27.5V20.8696C69.2732 20.7609 69.2732 20.5435 69.2732 20.3261C69.2732 20 69.2732 19.6739 69.3833 19.3478C69.3833 19.0217 69.4935 18.6956 69.6036 18.3695C69.7137 18.0435 69.8239 17.8261 70.0441 17.6087C70.2644 17.3913 70.4846 17.2826 70.815 17.1739C71.1454 17.0652 71.4758 17.0652 71.8062 16.9565C72.1366 16.8478 72.467 16.8478 72.7974 16.8478C73.1278 16.8478 73.3481 16.8478 73.4582 16.8478C73.5683 16.8478 73.7886 16.8478 74.0089 16.8478C74.3393 16.8478 74.6697 16.8478 75.0001 16.9565C75.3305 16.9565 75.6609 17.0652 75.9913 17.1739C76.3216 17.2826 76.5419 17.3913 76.7622 17.6087C76.9824 17.8261 77.0926 18.0435 77.2027 18.3695C77.3128 18.6956 77.3128 19.0217 77.423 19.3478C77.423 19.6739 77.5331 20 77.5331 20.3261C77.5331 20.6522 77.5331 20.7609 77.5331 20.8696V27.5ZM75.3305 29.3478C75.4406 29.2391 75.5507 29.1304 75.5507 28.913C75.6609 28.6956 75.6609 28.5869 75.6609 28.3696C75.6609 28.1522 75.6609 28.0435 75.6609 27.8261C75.6609 27.6087 75.6609 27.5 75.6609 27.3913V20.7609C75.6609 20.6522 75.6609 20.5435 75.6609 20.4348C75.6609 20.3261 75.6609 20.1087 75.6609 19.8913C75.6609 19.6739 75.5507 19.5652 75.5507 19.3478C75.5507 19.1304 75.4406 19.0217 75.3305 18.913C75.2203 18.8043 75.1102 18.6956 74.8899 18.6956C74.6697 18.5869 74.5595 18.5869 74.3393 18.5869C74.119 18.5869 74.0089 18.5869 73.7886 18.5869C73.5683 18.5869 73.4582 18.5869 73.4582 18.5869C73.4582 18.5869 73.238 18.5869 73.1278 18.5869C72.9076 18.5869 72.7974 18.5869 72.5772 18.5869C72.3569 18.5869 72.1366 18.6956 72.0265 18.6956C71.8062 18.8043 71.6961 18.8043 71.586 18.913C71.4758 19.0217 71.3657 19.1304 71.3657 19.3478C71.3657 19.5652 71.2556 19.6739 71.2556 19.8913C71.2556 20.1087 71.2556 20.2174 71.2556 20.4348C71.2556 20.6522 71.2556 20.7609 71.2556 20.7609V27.3913C71.2556 27.5 71.2556 27.6087 71.2556 27.8261C71.2556 28.0435 71.2556 28.1522 71.2556 28.3696C71.2556 28.5869 71.3657 28.6956 71.3657 28.913C71.4758 29.1304 71.4758 29.2391 71.586 29.3478C71.6961 29.4565 71.8062 29.5652 72.0265 29.5652C72.2468 29.6739 72.467 29.6739 72.5772 29.6739C72.7974 29.6739 72.9076 29.6739 73.1278 29.6739C73.3481 29.6739 73.4582 29.6739 73.4582 29.6739C73.4582 29.6739 73.6785 29.6739 73.7886 29.6739C73.8987 29.6739 74.119 29.6739 74.3393 29.6739C74.5595 29.6739 74.6697 29.5652 74.8899 29.5652C75.1102 29.5652 75.2203 29.4565 75.3305 29.3478Z" fill="#FFDD00"/>
<path d="M91.7401 17.0652C91.8502 17.1739 91.8502 17.2826 91.8502 17.3913C91.8502 17.6087 91.8502 17.7174 91.8502 17.7174V19.4565C91.8502 19.8913 91.8502 20.3261 91.7401 20.9782C91.6299 21.6304 91.6299 22.1739 91.6299 22.8261C91.5198 23.4782 91.5198 24.0217 91.4097 24.5652C91.2995 25.1087 91.2995 25.6522 91.1894 25.9782C91.0793 26.3043 91.0793 26.7391 90.9691 27.1739C90.859 27.6087 90.7489 28.0435 90.6388 28.4782C90.5286 28.8043 90.4185 29.1304 90.3084 29.5652C90.1982 30 89.978 30.2174 89.8678 30.4348C89.6476 30.7609 89.3172 30.9783 88.8766 31.1956C88.7665 31.3043 88.6564 31.3043 88.4361 31.413C88.2158 31.5217 88.1057 31.5217 87.8854 31.5217C87.6652 31.5217 87.4449 31.413 87.3348 31.413C87.2247 31.413 87.0044 31.3043 86.8943 31.1956C86.674 31.0869 86.4537 30.9782 86.3436 30.7609C86.1233 30.6522 86.0132 30.4348 85.9031 30.3261C85.7929 30.2174 85.6828 30 85.5727 29.7826C85.4625 29.5652 85.3524 29.3478 85.2423 29.1304C85.1321 29.3478 85.022 29.5652 84.9119 29.7826C84.8017 30 84.6916 30.2174 84.5815 30.3261C84.3612 30.6522 84.0308 30.8696 83.5903 31.0869C83.4802 31.1956 83.37 31.1956 83.1498 31.3043C83.0396 31.3043 82.8194 31.413 82.5991 31.413C82.3788 31.413 82.1586 31.3043 82.0484 31.3043C81.9383 31.3043 81.718 31.1956 81.6079 31.0869C81.1674 30.8696 80.837 30.5435 80.6167 30.3261C80.5066 30.1087 80.2863 29.8913 80.1762 29.4565C80.0661 29.0217 79.8458 28.6956 79.7357 28.3696C79.6255 27.9348 79.5154 27.5 79.4053 27.0652C79.2951 26.6304 79.185 26.1956 79.185 25.8696C79.185 25.5435 79.0749 25.1087 78.9647 24.4565C78.8546 23.913 78.8546 23.2609 78.7445 22.7174C78.6343 22.0652 78.6343 21.5217 78.5242 20.8696C78.4141 20.2174 78.4141 19.7826 78.4141 19.3478V17.6087C78.4141 17.6087 78.4141 17.5 78.4141 17.2826C78.4141 17.0652 78.4141 16.9565 78.5242 16.9565C78.6343 16.8478 78.7445 16.8478 78.9647 16.8478C79.185 16.8478 79.2951 16.8478 79.2951 16.8478C79.2951 16.8478 79.4053 16.8478 79.6255 16.8478C79.8458 16.8478 79.9559 16.9565 79.9559 16.9565C80.066 17.0652 80.066 17.1739 80.066 17.2826C80.066 17.5 80.066 17.6087 80.066 17.6087V19.3478C80.066 19.6739 80.0661 20.1087 80.1762 20.5435C80.1762 21.0869 80.2863 21.6304 80.2863 22.1739C80.3964 22.7174 80.3964 23.3696 80.5066 23.913C80.6167 24.4565 80.6167 25 80.7268 25.4348C80.7268 25.7609 80.837 26.0869 80.9471 26.5217C81.0572 26.9565 81.1674 27.2826 81.2775 27.7174C81.3876 28.1522 81.6079 28.4782 81.718 28.6956C81.8282 28.913 81.8282 28.913 81.8282 29.0217C81.8282 29.1304 81.9383 29.1304 82.0484 29.2391C82.1586 29.3478 82.2687 29.3478 82.3788 29.4565C82.3788 29.4565 82.3788 29.4565 82.489 29.4565C82.489 29.4565 82.489 29.4565 82.5991 29.4565C82.7092 29.3478 82.9295 29.3478 82.9295 29.2391C83.0396 29.1304 83.0396 29.1304 83.1498 29.0217C83.1498 29.0217 83.1498 28.913 83.2599 28.913C83.2599 28.8043 83.37 28.6956 83.4802 28.4782C83.4802 28.2609 83.5903 28.1522 83.5903 27.9348C83.5903 27.8261 83.5903 27.6087 83.7004 27.5C83.8105 27.0652 83.8105 26.5217 83.9207 25.9782C84.0308 25.4348 84.0308 24.7826 84.1409 24.2391C84.2511 23.6956 84.2511 23.1522 84.2511 22.6087C84.2511 22.0652 84.3612 21.6304 84.3612 21.3043V17.6087C84.3612 17.5 84.3612 17.5 84.3612 17.3913C84.3612 17.2826 84.3612 17.1739 84.4713 17.0652C84.4713 16.9565 84.5815 16.9565 84.5815 16.9565C84.6916 16.8478 84.8017 16.8478 84.9119 16.8478C85.022 16.8478 85.1321 16.8478 85.2423 16.8478C85.3524 16.8478 85.3524 16.8478 85.5727 16.8478C85.6828 16.8478 85.9031 16.8478 86.0132 16.9565C86.0132 16.9565 86.1233 17.0652 86.1233 17.1739C86.1233 17.2826 86.1233 17.3913 86.1233 17.5C86.1233 17.6087 86.1233 17.6087 86.1233 17.7174V21.413C86.1233 21.7391 86.1233 22.1739 86.1233 22.7174C86.1233 23.2609 86.2335 23.8043 86.2335 24.3478C86.2335 24.8913 86.3436 25.5435 86.4537 26.0869C86.5639 26.6304 86.5639 27.1739 86.674 27.6087C86.674 27.7174 86.7841 27.9348 86.7841 28.0435C86.7841 28.1522 86.8943 28.3696 86.8943 28.5869C87.0044 28.8043 87.0044 28.913 87.1145 29.0217C87.2246 29.1304 87.2246 29.1304 87.2246 29.1304C87.2246 29.2391 87.3348 29.2391 87.4449 29.3478C87.555 29.4565 87.6652 29.4565 87.7753 29.5652C87.7753 29.5652 87.7753 29.5652 87.8854 29.5652C87.8854 29.5652 87.8854 29.5652 87.9956 29.5652C88.1057 29.4565 88.326 29.4565 88.326 29.3478C88.4361 29.2391 88.4361 29.2391 88.5462 29.1304C88.5462 29.1304 88.6564 29.0217 88.7665 28.8043C88.8766 28.5869 88.9868 28.3696 89.0969 27.8261C89.207 27.3913 89.3172 27.0652 89.4273 26.6304C89.5374 26.1956 89.6476 25.8696 89.6476 25.5435C89.7577 25.1087 89.7577 24.5652 89.8678 24.0217C89.978 23.4782 89.978 22.8261 90.0881 22.2826C90.1982 21.7391 90.1982 21.1956 90.1982 20.6522C90.1982 20.1087 90.1982 19.6739 90.1982 19.4565V17.7174C90.1982 17.7174 90.1982 17.6087 90.1982 17.3913C90.1982 17.1739 90.3084 17.0652 90.3084 17.0652C90.4185 16.9565 90.5286 16.9565 90.6388 16.9565C90.859 16.9565 90.9691 16.9565 90.9691 16.9565C91.0793 16.9565 91.1894 16.9565 91.2995 16.9565C91.4097 16.9565 91.7401 16.9565 91.7401 17.0652Z" fill="#FFDD00"/>
<path d="M53.414 40.4334C53.414 40.5421 53.414 40.7595 53.414 40.9769C53.414 41.1943 53.414 41.5204 53.3039 41.8465C53.3039 42.1726 53.1938 42.4987 53.0837 42.716C52.9735 43.0421 52.8634 43.2595 52.6431 43.4769C52.533 43.5856 52.4229 43.6943 52.2026 43.803C52.4229 43.9117 52.533 44.0204 52.6431 44.1291C52.8634 44.3465 52.9735 44.5639 53.0837 44.89C53.1938 45.2161 53.3039 45.5421 53.3039 45.7595C53.3039 46.0856 53.414 46.303 53.414 46.6291C53.414 46.8465 53.414 47.0639 53.414 47.1726V47.4987C53.414 47.6074 53.414 47.8247 53.414 48.1508C53.414 48.4769 53.414 48.803 53.3039 49.1291C53.3039 49.4552 53.1938 49.89 53.0837 50.2161C52.9735 50.5421 52.8634 50.8682 52.6431 50.9769C52.4229 51.1943 52.2026 51.303 51.8722 51.4117C51.5418 51.5204 51.2114 51.6291 50.7709 51.6291C50.4405 51.6291 50.1101 51.7378 49.7797 51.7378C49.4493 51.7378 49.229 51.7378 49.1189 51.7378H45.7048C45.7048 51.7378 45.5947 51.7378 45.3744 51.7378C45.1541 51.7378 45.044 51.6291 44.9339 51.6291C44.8237 51.5204 44.8237 51.4117 44.8237 51.1943C44.8237 50.9769 44.8237 50.8682 44.8237 50.8682V37.0639C44.8237 37.0639 44.8237 36.9552 44.8237 36.7378C44.8237 36.5204 44.8237 36.4117 44.9339 36.303C45.044 36.1943 45.1541 36.1943 45.3744 36.1943C45.5947 36.1943 45.7048 36.1943 45.7048 36.1943H49.1189C49.229 36.1943 49.4493 36.1943 49.7797 36.1943C50.1101 36.1943 50.4405 36.1943 50.7709 36.303C51.1013 36.303 51.5418 36.4117 51.8722 36.5204C52.2026 36.6291 52.533 36.7378 52.6431 36.9552C52.8634 37.1726 52.9735 37.39 53.0837 37.716C53.1938 38.0421 53.3039 38.3682 53.3039 38.803C53.3039 39.1291 53.414 39.4552 53.414 39.7813C53.414 40.1074 53.414 40.3247 53.414 40.4334ZM51.1013 38.3682C50.9911 38.2595 50.881 38.1508 50.6607 38.1508C50.4405 38.0421 50.2202 38.0421 49.9999 38.0421C49.7797 38.0421 49.5594 38.0421 49.4493 38.0421C49.229 38.0421 49.1189 38.0421 49.1189 38.0421H46.5858V42.9334H49.1189C49.229 42.9334 49.3392 42.9334 49.4493 42.9334C49.6696 42.9334 49.7797 42.9334 49.9999 42.9334C50.2202 42.9334 50.4405 42.8247 50.6607 42.8247C50.881 42.7161 50.9911 42.7161 51.1013 42.6074C51.2114 42.4987 51.3215 42.39 51.3215 42.1726C51.3215 41.9552 51.4317 41.8465 51.4317 41.6291C51.4317 41.4117 51.4317 41.1943 51.4317 41.0856C51.4317 40.8682 51.4317 40.7595 51.4317 40.6508C51.4317 40.5421 51.4317 40.4334 51.4317 40.216C51.4317 39.9987 51.4317 39.89 51.4317 39.6726C51.4317 39.4552 51.3215 39.2378 51.3215 39.1291C51.3215 39.0204 51.2114 38.4769 51.1013 38.3682ZM51.5418 47.1726C51.5418 47.0639 51.5418 46.9552 51.5418 46.7378C51.5418 46.5204 51.5418 46.4117 51.5418 46.1943C51.5418 45.9769 51.4317 45.7595 51.4317 45.6508C51.3215 45.4334 51.3215 45.3247 51.2114 45.216C51.1013 45.1074 50.9911 44.9987 50.7709 44.9987C50.5506 44.9987 50.3303 44.89 50.1101 44.89C49.8898 44.89 49.6695 44.89 49.5594 44.89C49.3392 44.89 49.229 44.89 49.229 44.89H46.696V50.1074H49.229C49.3392 50.1074 49.4493 50.1074 49.5594 50.1074C49.7797 50.1074 49.8898 50.1074 50.1101 50.1074C50.3303 50.1074 50.5506 49.9987 50.7709 49.9987C50.9911 49.89 51.1013 49.89 51.2114 49.7813C51.3215 49.6726 51.4317 49.5639 51.4317 49.3465C51.5418 49.1291 51.5418 49.0204 51.5418 48.803C51.5418 48.5856 51.5418 48.3682 51.5418 48.2595C51.5418 48.0421 51.5418 47.9334 51.5418 47.8247V47.1726Z" fill="#FFDD00"/>
<path d="M56.718 51.7391C56.718 51.7391 56.6078 51.7391 56.3876 51.7391C56.1673 51.7391 56.0572 51.6304 55.947 51.6304C55.8369 51.5217 55.8369 51.413 55.8369 51.1956C55.8369 50.9783 55.8369 50.8696 55.8369 50.8696V37.0652C55.8369 37.0652 55.8369 36.9565 55.8369 36.7391C55.8369 36.5217 55.8369 36.413 55.947 36.3043C56.0572 36.1957 56.1673 36.1956 56.3876 36.1956C56.6078 36.1956 56.718 36.1956 56.718 36.1956C56.718 36.1956 56.8281 36.1956 57.0484 36.1956C57.2686 36.1956 57.3788 36.3043 57.4889 36.3043C57.599 36.413 57.599 36.5217 57.599 36.7391C57.599 36.9565 57.599 37.0652 57.599 37.0652V50.8696C57.599 50.8696 57.599 50.9783 57.599 51.1956C57.599 51.413 57.4889 51.5217 57.4889 51.6304C57.4889 51.7391 57.2686 51.7391 57.0484 51.7391C56.8281 51.7391 56.718 51.7391 56.718 51.7391Z" fill="#FFDD00"/>
<path d="M64.3171 36.0869C64.4273 36.0869 64.6475 36.0869 64.9779 36.0869C65.3083 36.0869 65.6387 36.0869 65.9691 36.1956C66.2995 36.1956 66.74 36.3043 67.0704 36.413C67.4008 36.5217 67.7312 36.6304 67.8413 36.8478C68.0616 37.0652 68.1717 37.2826 68.2819 37.6087C68.392 37.9348 68.5021 38.2609 68.5021 38.6956C68.5021 39.0217 68.6123 39.3478 68.6123 39.6739C68.6123 40 68.6123 40.2174 68.6123 40.3261V40.9782C68.6123 41.0869 68.6123 41.3043 68.6123 41.6304C68.6123 41.9565 68.6123 42.2826 68.5021 42.6087C68.5021 42.9348 68.392 43.3696 68.2819 43.6956C68.1717 44.0217 68.0616 44.3478 67.8413 44.4565C67.6211 44.6739 67.4008 44.7826 67.0704 44.8913C66.74 45 66.4096 45.1087 65.9691 45.1087L67.0704 46.1956C67.1806 46.3043 67.2907 46.413 67.4008 46.5217C67.511 46.7391 67.7312 46.8478 67.9515 47.1739C68.1717 47.3913 68.2819 47.6087 68.392 47.9348C68.5021 48.1522 68.6123 48.3696 68.6123 48.5869V50.7609C68.6123 50.7609 68.6123 50.8696 68.6123 51.0869C68.6123 51.3043 68.5021 51.413 68.5021 51.5217C68.5021 51.6304 68.2819 51.6304 68.0616 51.6304C67.8414 51.6304 67.7312 51.6304 67.7312 51.6304C67.7312 51.6304 67.6211 51.6304 67.4008 51.6304C67.1806 51.6304 67.0704 51.5217 66.9603 51.5217C66.8502 51.5217 66.8502 51.3043 66.8502 51.0869C66.8502 50.8696 66.8502 50.7609 66.8502 50.7609V49.0217C66.8502 48.913 66.8502 48.8043 66.74 48.6956C66.6299 48.5869 66.6299 48.4782 66.5198 48.3696C66.4096 48.2609 66.4096 48.1522 66.2995 48.0435C66.0792 47.9348 66.0792 47.9348 66.0792 47.9348L63.4361 45.3261H61.7841V50.8696C61.7841 50.8696 61.7841 50.9782 61.7841 51.1956C61.7841 51.413 61.674 51.5217 61.674 51.6304C61.674 51.7391 61.4537 51.7391 61.2334 51.7391C61.0132 51.7391 60.903 51.7391 60.903 51.7391C60.903 51.7391 60.6828 51.7391 60.5726 51.7391C60.3524 51.7391 60.2422 51.6304 60.1321 51.6304C60.022 51.6304 60.022 51.413 60.022 51.1956C60.022 50.9782 60.022 50.8696 60.022 50.8696V37.0652C60.022 37.0652 60.022 36.9565 60.022 36.7391C60.022 36.5217 60.022 36.413 60.1321 36.3043C60.2422 36.1956 60.3524 36.1956 60.5726 36.1956C60.7929 36.1956 60.903 36.1956 60.903 36.1956H64.3171V36.0869ZM66.74 40.4348C66.74 40.3261 66.74 40.2174 66.74 40C66.74 39.7826 66.74 39.6739 66.74 39.4565C66.74 39.2391 66.6299 39.0217 66.6299 38.913C66.6299 38.8043 66.5198 38.5869 66.4096 38.4783C66.2995 38.3696 66.1894 38.2609 65.9691 38.2609C65.6387 38.0435 65.4184 38.0435 65.1982 38.0435C64.9779 38.0435 64.7577 38.0435 64.6475 38.0435C64.4273 38.0435 64.3171 38.0435 64.3171 38.0435H61.7841V43.4782H64.3171C64.4273 43.4782 64.5374 43.4782 64.6475 43.4782C64.8678 43.4782 64.9779 43.4782 65.1982 43.4782C65.4184 43.4782 65.6387 43.3696 65.859 43.3696C66.0792 43.2609 66.1894 43.2609 66.2995 43.1522C66.4096 43.0435 66.5198 42.9348 66.5198 42.7174C66.6299 42.5 66.6299 42.3913 66.6299 42.1739C66.6299 41.9565 66.6299 41.7391 66.6299 41.6304C66.6299 41.413 66.6299 41.3043 66.6299 41.1956V40.4348H66.74Z" fill="#FFDD00"/>
<path d="M75.2202 36.0869C75.3303 36.0869 75.5506 36.0869 75.881 36.0869C76.2114 36.0869 76.5418 36.0869 76.8722 36.1956C77.2026 36.1956 77.6431 36.3043 77.9735 36.413C78.3039 36.5217 78.6343 36.6304 78.7444 36.8478C78.9647 37.0652 79.0748 37.2826 79.185 37.6087C79.2951 37.9348 79.4052 38.2609 79.4052 38.6956C79.4052 39.0217 79.5154 39.3478 79.5154 39.6739C79.5154 40 79.5154 40.2174 79.5154 40.3261V41.7391V47.3913C79.5154 47.5 79.5154 47.7174 79.5154 48.0435C79.5154 48.3696 79.5154 48.6956 79.4052 49.0217C79.4052 49.3478 79.2951 49.7826 79.185 50.1087C79.0748 50.4348 78.9647 50.7609 78.7444 50.8695C78.5242 51.0869 78.3039 51.1956 77.9735 51.3043C77.6431 51.413 77.3127 51.5217 76.8722 51.5217C76.5418 51.5217 76.2114 51.6304 75.881 51.6304C75.5506 51.6304 75.3303 51.6304 75.2202 51.6304H71.8061C71.8061 51.6304 71.696 51.6304 71.4757 51.6304C71.2554 51.6304 71.1453 51.5217 71.0352 51.5217C70.925 51.413 70.925 51.3043 70.925 51.0869C70.925 50.8696 70.925 50.7609 70.925 50.7609V37.0652C70.925 37.0652 70.925 36.9565 70.925 36.7391C70.925 36.5217 70.925 36.413 71.0352 36.3043C71.1453 36.1956 71.2554 36.1956 71.4757 36.1956C71.696 36.1956 71.8061 36.1956 71.8061 36.1956H75.2202V36.0869ZM77.7532 40.4348C77.7532 40.3261 77.7532 40.2174 77.7532 40C77.7532 39.7826 77.7532 39.6739 77.7532 39.4565C77.7532 39.2391 77.6431 39.0217 77.6431 38.913C77.6431 38.8043 77.533 38.5869 77.4228 38.4782C77.3127 38.3696 77.2026 38.2609 76.9823 38.2609C76.6519 38.0435 76.4317 38.0435 76.2114 38.0435C75.9911 38.0435 75.7709 38.0435 75.6607 38.0435C75.4405 38.0435 75.3303 38.0435 75.3303 38.0435H72.7973V50H75.3303C75.4405 50 75.5506 50 75.6607 50C75.881 50 75.9911 50 76.2114 50C76.4317 50 76.6519 49.8913 76.8722 49.8913C77.0925 49.7826 77.2026 49.7826 77.3127 49.6739C77.4228 49.5652 77.533 49.4565 77.533 49.2391C77.6431 49.0217 77.6431 48.913 77.6431 48.6956C77.6431 48.4782 77.6431 48.2609 77.6431 48.1522C77.6431 47.9348 77.6431 47.8261 77.6431 47.7174V40.4348H77.7532Z" fill="#FFDD00"/>
<path d="M45.4846 85.8696C45.7048 85.3261 45.815 84.8913 45.9251 84.5652C45.9251 84.4565 46.0352 84.1304 45.2643 83.913C44.163 83.4782 41.5198 84.0217 40.0881 84.8913C38.6564 85.8696 37.6652 86.9565 37.2247 88.2609C36.8943 89.2391 36.7841 90.1087 36.8943 90.9783C37.1145 91.8478 37.4449 92.6087 37.9956 93.3696C38.5463 94.1304 39.4273 95.1087 40.4185 96.3043C41.5198 97.5 42.2908 98.6956 42.7313 99.6739C43.0617 100.761 43.0617 101.848 42.6212 102.935C42.2908 103.804 41.7401 104.565 41.0793 105.326C40.3084 106.087 39.5374 106.63 38.5463 106.957C37.5551 107.283 36.674 107.283 35.6828 106.957C35.1322 106.739 34.5815 106.522 34.2511 106.196C33.9207 105.87 33.5903 105.652 33.4802 105.435C33.2599 105.109 33.2599 105 33.37 104.891C33.37 104.891 33.4802 104.674 33.5903 104.565C33.8106 104.348 33.8106 104.239 33.5903 104.348C33.5903 104.348 33.37 104.457 33.0397 104.891C32.489 105.435 32.3789 105.761 32.2687 105.978C32.1586 106.413 32.2687 106.739 32.7093 107.174C33.1498 107.609 33.9207 108.043 34.8018 108.37C35.9031 108.804 37.1145 108.804 38.2159 108.478C39.4273 108.043 40.4185 107.391 41.4097 106.413C42.4009 105.435 43.0617 104.348 43.5022 103.152C44.0529 101.739 44.0529 100.435 43.7225 99.2391C43.2819 98.0435 42.4009 96.6304 41.0793 95.3261C40.0881 94.3478 39.4273 93.4783 38.9868 92.9348C38.4361 92.2826 38.1057 91.6304 37.9956 90.8696C37.7753 90.1087 37.8855 89.3478 38.2159 88.5869C38.5463 87.6087 39.4273 86.8478 40.6388 86.0869C41.8502 85.3261 43.2819 85.1087 44.163 85.4348C44.3833 85.5435 44.6035 85.6522 44.7137 85.7609C44.8238 85.8696 44.9339 85.9782 45.0441 86.0869C45.0441 85.7609 45.3745 86.3043 45.4846 85.8696Z" fill="#3F245C"/>
<path d="M52.0925 106.522C51.9824 106.304 51.8723 105.87 51.8723 105.435C51.7621 104.891 51.7621 103.913 51.7621 102.5C51.7621 101.087 51.652 100.109 51.652 99.5652C51.652 99.4565 51.5419 99.3478 51.4317 99.2391C51.3216 99.1304 51.1013 99.0217 50.9912 99.0217C50.9912 99.0217 50.8811 99.0217 50.8811 99.1304C50.8811 99.2391 50.7709 99.3478 50.7709 99.5652C50.6608 100.109 50.5507 100.435 50.4405 100.652C50.1101 101.413 49.7797 102.174 49.2291 103.152C48.6784 104.13 48.1278 104.891 47.5771 105.652C47.0264 106.304 46.5859 106.739 46.2555 106.739C46.0353 106.739 45.815 106.304 45.815 105.326C45.815 103.913 45.9251 102.717 46.1454 101.957C46.3657 101.087 46.696 100.435 47.0264 99.7826C47.1366 99.5652 47.2467 99.4565 47.2467 99.3478C47.2467 99.2391 47.1366 99.1304 46.8062 99.1304C46.696 99.1304 46.5859 99.1304 46.4758 99.2391C46.3657 99.3478 46.2555 99.4565 46.1454 99.7826C45.815 100.326 45.5947 101.196 45.3745 102.283C45.1542 103.37 45.0441 104.348 45.0441 105.217C45.0441 106.087 45.1542 106.848 45.2643 107.174C45.3745 107.609 45.7049 107.826 46.0353 107.826C46.4758 107.826 46.9163 107.5 47.5771 106.739C48.2379 105.978 48.7886 105.109 49.4494 104.022C50.1101 102.935 50.5507 102.065 50.8811 101.196C50.8811 101.413 50.8811 101.63 50.8811 101.848C50.8811 102.065 50.8811 102.391 50.8811 102.609C50.8811 104.239 50.9912 105.217 50.9912 105.761C50.9912 106.304 51.2115 106.848 51.3216 107.283C51.5419 107.826 51.7621 108.043 51.9824 108.043C52.2027 108.043 52.3128 108.043 52.4229 107.935C52.5331 107.826 52.6432 107.717 52.6432 107.5C52.6432 107.5 52.5331 107.391 52.4229 107.174C52.3128 106.957 52.3128 106.739 52.0925 106.522Z" fill="#3F245C"/>
<path d="M59.141 99.1304C58.9207 99.0217 58.5903 98.913 58.37 98.913C58.0396 98.913 57.7092 99.1304 57.2687 99.4565C56.8282 99.7826 56.3877 100.326 56.0573 100.978C55.6167 101.63 55.2863 102.5 54.8458 103.37V100.543C54.8458 100 54.8458 99.6739 54.7357 99.5652C54.7357 99.3478 54.5154 99.3478 54.4053 99.3478C54.0749 99.3478 53.8546 99.4565 53.8546 99.7826C53.8546 100.217 53.8546 100.978 53.8546 101.957C53.8546 102.609 53.8546 103.261 53.8546 103.696C53.8546 104.239 53.8546 104.565 53.8546 104.783C53.8546 105.87 53.8546 106.63 53.9647 107.174C54.0749 107.717 54.185 108.043 54.4053 108.043C54.6255 108.043 54.7357 107.935 54.8458 107.826C54.9559 107.717 54.9559 107.5 54.9559 107.391V106.63C54.9559 106.413 54.9559 106.087 54.8458 105.652C54.8458 105.217 54.8458 104.891 54.7357 104.565C55.2863 103.152 55.9471 101.957 56.4978 101.087C57.0484 100.217 57.5991 99.6739 57.9295 99.6739C58.0396 99.6739 58.2599 99.6739 58.37 99.7826C58.4802 99.8913 58.5903 100 58.7004 100.109C58.8106 100.217 58.9207 100.326 58.9207 100.435C59.0308 100.543 59.0308 100.543 59.141 100.543C59.2511 100.543 59.3612 100.435 59.5815 100.326C59.6916 100.217 59.8017 100.109 59.8017 100C59.8017 99.7826 59.6916 99.6739 59.5815 99.4565C59.5815 99.3478 59.3612 99.2391 59.141 99.1304Z" fill="#3F245C"/>
<path d="M69.163 97.9348C69.0529 97.9348 68.9428 97.9348 68.8326 98.0434C68.7225 98.1521 68.6124 98.2608 68.5023 98.4782C67.7313 99.4565 67.1807 100.543 66.63 101.956C66.0793 103.37 65.6388 104.783 65.4186 106.196C65.3084 106.848 65.1983 107.391 65.1983 107.717L64.7578 106.739C63.7666 104.456 63.1058 103.043 62.8855 102.5C62.1146 100.978 61.6741 100 61.3437 99.6739L61.2335 99.5652C61.2335 99.4565 61.1234 99.4565 61.1234 99.3478C61.0133 99.3478 61.0133 99.2391 60.9031 99.2391C60.6829 99.2391 60.5727 99.3478 60.3525 99.6739C60.1322 99.8913 60.1322 100.109 60.1322 100.326C60.1322 100.435 60.1322 100.435 60.2423 100.543L60.3525 100.652C60.3525 100.652 60.4626 100.652 60.4626 100.543C60.4626 100.435 60.5727 100.435 60.5727 100.435C60.6829 100.435 60.9031 100.761 61.2335 101.304C61.5639 101.848 61.8943 102.717 62.445 103.696L63.2159 105.435C63.6564 106.304 63.9868 107.065 64.3172 107.826C64.6476 108.587 64.8679 108.913 64.978 108.913C65.3084 108.913 65.5287 108.913 65.6388 108.696C65.7489 108.587 65.8591 108.478 65.8591 108.261L65.9692 107.609C66.0793 107.065 66.0793 106.739 66.1895 106.522C66.5199 105 66.9604 103.587 67.5111 102.174C68.0617 100.87 68.6124 99.7826 69.2732 99.1304C69.2732 99.1304 69.3833 99.0217 69.6036 98.913C69.7137 98.8043 69.8238 98.6956 69.8238 98.6956C69.8238 98.5869 69.7137 98.4782 69.6036 98.3695C69.3833 98.0435 69.2732 97.9348 69.163 97.9348Z" fill="#3F245C"/>
<path d="M76.8723 103.152C76.8723 103.152 76.7621 103.261 76.7621 103.37C76.652 103.478 76.652 103.587 76.652 103.696C76.2115 104.565 75.771 105.326 75.2203 105.978C74.6696 106.63 73.8987 106.957 72.9075 106.957C72.2467 106.957 71.8062 106.739 71.4758 106.413C71.1454 105.978 70.9251 105.435 70.9251 104.783C70.9251 104.239 71.0353 103.696 71.1454 103.152C71.9163 103.043 72.7974 102.826 73.5683 102.5C74.3392 102.174 75 101.848 75.4406 101.413C75.8811 100.978 76.2115 100.652 76.2115 100.217C76.2115 99.8913 76.1013 99.5652 75.771 99.3478C75.4406 99.1304 75.1102 99.0217 74.6696 99.0217C73.8987 99.0217 73.1278 99.3478 72.467 99.8913C71.8062 100.435 71.1454 101.196 70.7049 102.174C70.2643 103.043 70.0441 104.022 70.0441 105C70.0441 105.978 70.2643 106.739 70.815 107.174C71.3657 107.609 72.0264 107.935 72.7974 107.935C73.7886 107.935 74.5595 107.609 75.2203 106.957C75.8811 106.304 76.3216 105.652 76.652 104.891C76.9824 104.13 77.0925 103.696 77.0925 103.478C76.9824 103.152 76.9824 103.152 76.8723 103.152ZM71.8062 101.196C72.1366 100.761 72.467 100.435 72.9075 100.109C73.348 99.7826 73.7886 99.6739 74.2291 99.6739C74.4494 99.6739 74.7798 99.7826 74.8899 99.8913C75.1102 100 75.2203 100.109 75.2203 100.326C75.2203 100.543 75 100.761 74.5595 101.087C74.119 101.413 73.5683 101.63 73.0176 101.957C72.3569 102.174 71.8062 102.391 71.2555 102.391C71.3657 101.957 71.5859 101.63 71.8062 101.196Z" fill="#3F245C"/>
<path d="M83.4801 103.37C83.4801 103.261 83.5903 102.609 83.7004 101.63C83.8105 100.652 83.9207 100.109 83.9207 99.7826C83.9207 99.6739 83.8105 99.5652 83.7004 99.3478C83.5903 99.2391 83.4801 99.1304 83.37 99.1304C83.2599 99.1304 83.1497 99.2391 83.0396 99.3478C83.0396 99.4565 82.9295 99.6739 82.9295 99.8913L82.8193 101.739C82.7092 102.065 82.5991 102.391 82.3788 102.826C82.1586 103.261 82.0484 103.587 81.8282 103.804C81.4978 104.348 81.1674 104.783 80.9471 105C80.7268 105.217 80.3964 105.435 80.066 105.435C79.185 105.435 78.6343 103.804 78.0837 100.435C77.9735 99.8913 77.8634 99.6739 77.533 99.6739C77.3127 99.6739 77.3127 99.7826 77.3127 100.109C77.3127 100.543 77.4229 101.304 77.6431 102.391C77.8634 103.478 78.1938 104.348 78.5242 105.217C78.8546 106.087 79.2951 106.413 79.8458 106.413C80.3964 106.413 80.837 106.087 81.3876 105.543C81.8282 105 82.2687 104.348 82.5991 103.696L82.2687 106.196C82.1586 107.391 82.0484 108.261 82.0484 108.913C82.0484 109.783 82.0484 110.435 82.1586 110.87C82.2687 111.304 82.3788 111.522 82.489 111.522C82.7092 111.522 82.9295 111.522 83.0396 111.413C83.1497 111.304 83.37 111.196 83.37 111.087C83.37 111.087 83.37 110.978 83.2599 110.761C83.1497 110.543 83.0396 110.326 83.0396 110C82.9295 109.674 82.9295 109.239 82.9295 108.804C82.9295 108.152 82.9295 107.5 83.0396 106.739C83.2599 105.978 83.37 104.783 83.4801 103.37Z" fill="#3F245C"/>
</g>
<defs>
<clipPath id="clip0">
<rect width="100" height="115" fill="white"/>
</clipPath>
</defs>
</svg>
