<svg width="18" height="18" viewBox="0 0 18 18" fill="none" xmlns="http://www.w3.org/2000/svg">
<path d="M9 0C4.02991 0 0 4.02991 0 9C0 13.9701 4.02991 18 9 18C13.9701 18 18 13.9701 18 9C18 4.02991 13.9701 0 9 0ZM9 16.4732C4.87366 16.4732 1.52679 13.1263 1.52679 9C1.52679 4.87366 4.87366 1.52679 9 1.52679C13.1263 1.52679 16.4732 4.87366 16.4732 9C16.4732 13.1263 13.1263 16.4732 9 16.4732Z" fill="black"/>
<path d="M12.5096 11.5433L9.64487 9.4721V4.5C9.64487 4.41161 9.57254 4.33929 9.48415 4.33929H8.51786C8.42946 4.33929 8.35714 4.41161 8.35714 4.5V10.0326C8.35714 10.0848 8.38125 10.133 8.42344 10.1632L11.7462 12.5859C11.8185 12.6382 11.919 12.6221 11.9712 12.5518L12.5458 11.7683C12.598 11.694 12.5819 11.5935 12.5096 11.5433Z" fill="black"/>
</svg>
