<svg width="20" height="20" viewBox="0 0 20 20" fill="none" xmlns="http://www.w3.org/2000/svg">
<path d="M17.7778 0C18.3671 0 18.9324 0.234126 19.3491 0.650874C19.7659 1.06762 20 1.63285 20 2.22222V17.7778C20 18.3671 19.7659 18.9324 19.3491 19.3491C18.9324 19.7659 18.3671 20 17.7778 20H2.22222C1.63285 20 1.06762 19.7659 0.650874 19.3491C0.234126 18.9324 0 18.3671 0 17.7778V2.22222C0 0.988889 0.988889 0 2.22222 0H17.7778ZM8.43333 7.86667C8.41111 7.92222 8.11111 9.82222 6.11111 13.0778C6.11111 13.0778 2.22222 15.0889 3.14444 16.6C3.88889 17.7778 5.72222 16.5556 7.28889 13.6333C7.28889 13.6333 9.31111 12.9222 11.9889 12.7222C11.9889 12.7222 16.2778 14.6556 16.8556 12.6C17.4333 10.5556 13.4667 11 12.7778 11.2111C12.7778 11.2111 10.5111 9.72222 10 7.65556C10 7.65556 11.2556 3.27778 9.31111 3.33333C7.36667 3.38889 8.1 6.8 8.43333 7.86667V7.86667ZM9.33333 9.03333C9.36667 9.03333 9.85556 10.3667 11.4333 11.7556C11.4333 11.7556 8.84444 12.2667 7.66667 12.7778C7.66667 12.7778 8.77778 10.8333 9.33333 9.03333V9.03333ZM13.6889 12.0444C14.3333 11.8778 16.2667 12.2222 16.2 12.5778C16.1111 12.9444 13.6889 12.0444 13.6889 12.0444V12.0444ZM5.84444 14.1111C5.25556 15.4556 4.25556 16.3111 4 16.3C3.74444 16.2889 4.77778 14.5222 5.84444 14.1111V14.1111ZM9.33333 6.4C9.32222 6.34445 8.92222 3.96667 9.33333 4.01111C9.93333 4.07778 9.33333 6.34445 9.33333 6.4Z" fill="#FFDC00"/>
</svg>
