<svg width="16" height="16" viewBox="0 0 16 16" fill="none" xmlns="http://www.w3.org/2000/svg">
<path d="M15 9.25C15.1381 9.25 15.25 9.13807 15.25 9V7C15.25 6.86193 15.1381 6.75 15 6.75H9.25V1C9.25 0.861929 9.13807 0.75 9 0.75H7C6.86193 0.75 6.75 0.861929 6.75 1V6.75H1C0.861929 6.75 0.75 6.86193 0.75 7V9C0.75 9.13807 0.861929 9.25 1 9.25H6.75V15C6.75 15.1381 6.86193 15.25 7 15.25H9C9.13807 15.25 9.25 15.1381 9.25 15V9.25H15Z" fill="#8C9DD0" stroke="#8C9DD0" stroke-width="0.5" stroke-linecap="round" stroke-linejoin="round"/>
</svg>
