<svg width="54" height="62" viewBox="0 0 54 62" fill="none" xmlns="http://www.w3.org/2000/svg">
<path d="M36.05 20.2419C36.9924 21.9646 37.3878 23.6687 37.2603 25.3634C37.091 27.0551 36.6765 28.8471 36.0122 30.7409L36.0121 30.7408L36.0081 30.753C35.4012 32.6359 34.6974 34.6593 33.8965 36.8232C33.1063 38.9366 32.6037 41.2413 32.3852 43.7344L32.3849 43.7389C32.1951 46.1522 32.4513 48.7947 33.1425 51.662C33.8066 54.5015 35.2761 57.5789 37.5248 60.8909L37.7799 61.2667L38.1784 61.0487L49.2661 54.983L49.7048 54.7431L49.4648 54.3044C47.9593 51.5524 47.2029 49.0792 47.1539 46.8758C47.1037 44.6152 47.374 42.4824 47.9618 40.4747L47.9619 40.4747L47.9651 40.4629C48.5245 38.3635 49.2696 36.2896 50.201 34.241C51.1584 32.1353 51.8876 29.9351 52.389 27.6409L52.3891 27.6409L52.3911 27.6306C52.86 25.2459 52.9204 22.6939 52.5786 19.9782C52.2623 17.1203 51.1514 13.9728 49.2743 10.5415C46.4076 5.30151 42.3061 2.10144 36.9782 1.00202C31.6211 -0.162634 25.7653 1.02871 19.4372 4.49058C14.7423 7.05898 11.0082 9.84216 8.25098 12.8468L8.25097 12.8468L8.24889 12.8491C5.57902 15.7951 3.43883 18.8478 1.83302 22.0078L1.63215 22.4031L2.00057 22.6498L12.2411 29.5069L12.7122 29.8224L12.9663 29.3155C13.4922 28.2662 14.1356 27.1923 14.8979 26.0936L14.898 26.0937L14.9044 26.084C15.6936 24.888 16.5688 23.7727 17.5299 22.7379L17.5383 22.7289L17.5462 22.7195C18.469 21.6223 19.461 20.6578 20.5219 19.8247L20.5324 19.8164L20.5425 19.8076C21.5721 18.906 22.6017 18.1756 23.6307 17.6126C26.9252 15.8103 29.442 15.3386 31.2664 15.9733L31.2664 15.9734L31.2786 15.9773C33.2287 16.6003 34.823 17.9991 36.05 20.2419Z" stroke="#FFDC00"/>
</svg>
