<svg width="51" height="61" viewBox="0 0 51 61" fill="none" xmlns="http://www.w3.org/2000/svg">
<path d="M31.6758 51.2319C32.3214 53.9935 33.7578 57.0147 35.9852 60.2954L47.0729 54.2297C45.5428 51.4328 44.7521 48.8803 44.7008 46.5723C44.6495 44.2642 44.9254 42.0799 45.5287 40.0195C46.0955 37.8924 46.8501 35.7924 47.7926 33.7194C48.7351 31.6463 49.4533 29.4797 49.9473 27.2195C50.4048 24.8926 50.4653 22.3936 50.1288 19.7224C49.8225 16.9482 48.7403 13.863 46.8824 10.4668C44.0772 5.33911 40.0902 2.24234 34.9214 1.17648C29.7161 0.0440299 23.9836 1.19005 17.7239 4.61453C13.0624 7.16468 9.37646 9.91657 6.66613 12.8702C4.02239 15.7874 1.90886 18.8039 0.325516 21.9196L10.566 28.7767C11.1039 27.7038 11.7598 26.6095 12.5338 25.4939C13.338 24.2752 14.2302 23.1382 15.2103 22.0829C16.1539 20.961 17.1705 19.9723 18.2598 19.1168C19.3128 18.1946 20.372 17.4421 21.4375 16.8592C24.7672 15.0377 27.4471 14.4801 29.4775 15.1864C31.5744 15.8562 33.2603 17.3565 34.5354 19.6872C35.5191 21.4853 35.9423 23.287 35.8052 25.0925C35.6317 26.8313 35.2069 28.6644 34.5308 30.5917C33.9213 32.4825 33.215 34.5129 32.412 36.6826C31.6391 38.7494 31.1451 41.0096 30.9301 43.4634C30.7452 45.8141 30.9938 48.4036 31.6758 51.2319Z" fill="#FFDC00"/>
</svg>
