<svg width="136" height="143" viewBox="0 0 136 143" fill="none" xmlns="http://www.w3.org/2000/svg">
<path d="M36.6006 114.863L42.187 120.259" stroke="#8C9DD0" stroke-width="3" stroke-miterlimit="10" stroke-linecap="round" stroke-linejoin="round"/>
<path d="M17.5298 95.783L27.7394 105.997" stroke="#8C9DD0" stroke-width="3" stroke-miterlimit="10" stroke-linecap="round" stroke-linejoin="round"/>
<path d="M34.8669 96.9393L73.2012 135.291" stroke="#8C9DD0" stroke-width="3" stroke-miterlimit="10" stroke-linecap="round" stroke-linejoin="round"/>
<path d="M15.2181 77.4744L23.1162 85.1833" stroke="#8C9DD0" stroke-width="3" stroke-miterlimit="10" stroke-linecap="round" stroke-linejoin="round"/>
<path d="M62.4136 108.503L96.1246 142.229" stroke="#8C9DD0" stroke-width="3" stroke-miterlimit="10" stroke-linecap="round" stroke-linejoin="round"/>
<path d="M11.3654 57.624L47.3881 93.6631" stroke="#8C9DD0" stroke-width="3" stroke-miterlimit="10" stroke-linecap="round" stroke-linejoin="round"/>
<path d="M39.6827 69.7655L99.2068 129.317" stroke="#8C9DD0" stroke-width="3" stroke-miterlimit="10" stroke-linecap="round" stroke-linejoin="round"/>
<path d="M15.0255 45.097L27.5467 57.8167" stroke="#8C9DD0" stroke-width="3" stroke-miterlimit="10" stroke-linecap="round" stroke-linejoin="round"/>
<path d="M88.8045 102.914L103.059 117.175" stroke="#8C9DD0" stroke-width="3" stroke-miterlimit="10" stroke-linecap="round" stroke-linejoin="round"/>
<path d="M0.770538 14.8396L73.779 87.8814" stroke="#8C9DD0" stroke-width="3" stroke-miterlimit="10" stroke-linecap="round" stroke-linejoin="round"/>
<path d="M59.3314 57.4313L130.606 128.739" stroke="#8C9DD0" stroke-width="3" stroke-miterlimit="10" stroke-linecap="round" stroke-linejoin="round"/>
<path d="M27.7394 25.8248L44.306 42.399" stroke="#8C9DD0" stroke-width="3" stroke-miterlimit="10" stroke-linecap="round" stroke-linejoin="round"/>
<path d="M73.2011 55.3113L119.241 101.372" stroke="#8C9DD0" stroke-width="3" stroke-miterlimit="10" stroke-linecap="round" stroke-linejoin="round"/>
<path d="M26.1983 8.09436L60.102 42.2062" stroke="#8C9DD0" stroke-width="3" stroke-miterlimit="10" stroke-linecap="round" stroke-linejoin="round"/>
<path d="M111.15 77.2816L135.229 101.372" stroke="#8C9DD0" stroke-width="3" stroke-miterlimit="10" stroke-linecap="round" stroke-linejoin="round"/>
<path d="M47.0028 12.9124L93.6204 59.7439" stroke="#8C9DD0" stroke-width="3" stroke-miterlimit="10" stroke-linecap="round" stroke-linejoin="round"/>
<path d="M87.8413 37.7736L120.397 70.3436" stroke="#8C9DD0" stroke-width="3" stroke-miterlimit="10" stroke-linecap="round" stroke-linejoin="round"/>
<path d="M50.8555 0.770874L75.1275 25.0539" stroke="#8C9DD0" stroke-width="3" stroke-miterlimit="10" stroke-linecap="round" stroke-linejoin="round"/>
<path d="M116.737 50.6859L129.45 63.4056" stroke="#8C9DD0" stroke-width="3" stroke-miterlimit="10" stroke-linecap="round" stroke-linejoin="round"/>
<path d="M70.3116 4.23987L102.289 36.2318" stroke="#8C9DD0" stroke-width="3" stroke-miterlimit="10" stroke-linecap="round" stroke-linejoin="round"/>
<path d="M110.187 28.1375L117.892 35.8464" stroke="#8C9DD0" stroke-width="3" stroke-miterlimit="10" stroke-linecap="round" stroke-linejoin="round"/>
<path d="M96.5099 14.4542L101.904 19.8504" stroke="#8C9DD0" stroke-width="3" stroke-miterlimit="10" stroke-linecap="round" stroke-linejoin="round"/>
</svg>
