<svg width="15" height="15" viewBox="0 0 15 15" fill="none" xmlns="http://www.w3.org/2000/svg">
<path fill-rule="evenodd" clip-rule="evenodd" d="M14.9583 8.71834V7.11834L13.0183 6.47834L12.5683 5.38834L13.4483 3.54834L12.3183 2.41834L10.5083 3.32834L9.41825 2.87834L8.72825 0.958344H7.12825L6.49825 2.89834L5.38825 3.34834L3.54825 2.46834L2.41825 3.59834L3.32825 5.40834L2.87825 6.49834L0.958252 7.17834V8.76834L2.89825 9.40834L3.34825 10.4983L2.46825 12.3383L3.59825 13.4683L5.40825 12.5583L6.49825 13.0083L7.18825 14.9283H8.77825L9.40825 12.9883L10.5183 12.5383L12.3583 13.4183L13.4883 12.2883L12.5683 10.4783L13.0383 9.38834L14.9583 8.69834V8.71834ZM7.95825 10.9483C6.29825 10.9483 4.95825 9.60834 4.95825 7.94834C4.95825 6.28834 6.29825 4.94834 7.95825 4.94834C9.61825 4.94834 10.9583 6.28834 10.9583 7.94834C10.9583 9.60834 9.61825 10.9483 7.95825 10.9483Z" fill="#8C9DD0"/>
</svg>
