<svg width="234" height="221" viewBox="0 0 234 221" fill="none" xmlns="http://www.w3.org/2000/svg">
<g clip-path="url(#clip0)">
<path d="M114.863 184.399L120.259 178.813" stroke="#8C9DD0" stroke-width="3" stroke-miterlimit="10" stroke-linecap="round" stroke-linejoin="round"/>
<path d="M95.783 203.47L105.997 193.261" stroke="#8C9DD0" stroke-width="3" stroke-miterlimit="10" stroke-linecap="round" stroke-linejoin="round"/>
<path d="M96.9393 186.133L135.291 147.799" stroke="#8C9DD0" stroke-width="3" stroke-miterlimit="10" stroke-linecap="round" stroke-linejoin="round"/>
<path d="M77.4744 205.782L85.1833 197.884" stroke="#8C9DD0" stroke-width="3" stroke-miterlimit="10" stroke-linecap="round" stroke-linejoin="round"/>
<path d="M108.503 158.586L142.229 124.875" stroke="#8C9DD0" stroke-width="3" stroke-miterlimit="10" stroke-linecap="round" stroke-linejoin="round"/>
<path d="M57.624 209.635L93.6631 173.612" stroke="#8C9DD0" stroke-width="3" stroke-miterlimit="10" stroke-linecap="round" stroke-linejoin="round"/>
<path d="M69.7655 181.317L129.317 121.793" stroke="#8C9DD0" stroke-width="3" stroke-miterlimit="10" stroke-linecap="round" stroke-linejoin="round"/>
<path d="M45.097 205.975L57.8167 193.453" stroke="#8C9DD0" stroke-width="3" stroke-miterlimit="10" stroke-linecap="round" stroke-linejoin="round"/>
<path d="M102.914 132.195L117.175 117.941" stroke="#8C9DD0" stroke-width="3" stroke-miterlimit="10" stroke-linecap="round" stroke-linejoin="round"/>
<path d="M14.8396 220.229L87.8814 147.221" stroke="#8C9DD0" stroke-width="3" stroke-miterlimit="10" stroke-linecap="round" stroke-linejoin="round"/>
<path d="M57.4312 161.669L128.739 90.3938" stroke="#8C9DD0" stroke-width="3" stroke-miterlimit="10" stroke-linecap="round" stroke-linejoin="round"/>
<path d="M25.8248 193.261L42.3989 176.694" stroke="#8C9DD0" stroke-width="3" stroke-miterlimit="10" stroke-linecap="round" stroke-linejoin="round"/>
<path d="M55.3113 147.799L101.372 101.759" stroke="#8C9DD0" stroke-width="3" stroke-miterlimit="10" stroke-linecap="round" stroke-linejoin="round"/>
<path d="M8.09433 194.802L42.2062 160.898" stroke="#8C9DD0" stroke-width="3" stroke-miterlimit="10" stroke-linecap="round" stroke-linejoin="round"/>
<path d="M77.2816 109.85L101.372 85.7706" stroke="#8C9DD0" stroke-width="3" stroke-miterlimit="10" stroke-linecap="round" stroke-linejoin="round"/>
<path d="M12.9124 173.997L59.7439 127.38" stroke="#8C9DD0" stroke-width="3" stroke-miterlimit="10" stroke-linecap="round" stroke-linejoin="round"/>
<path d="M37.7736 133.159L70.3436 100.603" stroke="#8C9DD0" stroke-width="3" stroke-miterlimit="10" stroke-linecap="round" stroke-linejoin="round"/>
<path d="M0.770874 170.144L25.0539 145.873" stroke="#8C9DD0" stroke-width="3" stroke-miterlimit="10" stroke-linecap="round" stroke-linejoin="round"/>
<path d="M50.686 104.263L63.4057 91.5496" stroke="#8C9DD0" stroke-width="3" stroke-miterlimit="10" stroke-linecap="round" stroke-linejoin="round"/>
<path d="M4.23987 150.688L36.2318 118.711" stroke="#8C9DD0" stroke-width="3" stroke-miterlimit="10" stroke-linecap="round" stroke-linejoin="round"/>
<path d="M28.1375 110.813L35.8464 103.108" stroke="#8C9DD0" stroke-width="3" stroke-miterlimit="10" stroke-linecap="round" stroke-linejoin="round"/>
<path d="M14.4542 124.49L19.8504 119.096" stroke="#8C9DD0" stroke-width="3" stroke-miterlimit="10" stroke-linecap="round" stroke-linejoin="round"/>
</g>
<g clip-path="url(#clip1)">
<path d="M146.765 176.88C146.299 173.622 148.631 170.829 151.897 170.363C155.162 169.898 157.961 172.225 158.428 175.484C158.894 178.742 156.562 181.535 153.296 182C152.83 182 152.83 182 152.363 182C150.031 182 147.232 179.673 146.765 176.88ZM186.418 164.778C184.552 161.985 185.018 158.261 187.817 156.865C190.616 155.003 194.348 155.468 195.747 158.261C197.613 161.054 197.147 164.778 194.348 166.64C193.415 167.105 192.015 167.571 191.082 167.571C189.217 167.571 187.351 166.64 186.418 164.778ZM215.807 135.918C213.008 134.522 211.608 130.798 213.474 128.005C214.874 125.212 218.606 123.816 221.405 125.678C224.204 127.074 225.603 130.798 223.737 133.591C222.804 135.453 220.472 136.849 218.606 136.849C217.673 136.849 216.74 136.384 215.807 135.918ZM222.338 90.7674C222.338 87.0436 225.137 84.7163 228.402 84.7163C231.668 84.7163 234.467 87.5091 234.467 90.3019C234.467 93.5603 231.668 96.3531 228.402 96.3531C225.137 96.8186 222.338 94.0257 222.338 90.7674ZM57.665 76.3378C54.3995 75.4068 52.5335 72.614 53.4665 69.3557C54.3995 66.0973 57.1985 64.2355 60.4639 65.1664C63.7294 66.0974 65.5954 68.8902 64.6624 72.1485C64.1959 74.9413 61.3969 76.8032 59.0645 76.8032C58.598 76.3378 58.1315 76.3378 57.665 76.3378ZM213.008 53.5296C211.608 50.7367 212.541 47.013 215.34 45.6165C218.139 44.2201 221.871 45.1511 223.271 47.9439C224.67 50.7367 223.737 54.4605 220.938 55.8569C220.005 56.3224 219.072 56.3224 218.139 56.3224C216.273 56.7879 213.941 55.3915 213.008 53.5296ZM73.9923 38.6344C71.6598 36.3071 71.1933 33.0488 73.5258 30.2559C75.8583 27.9285 79.1237 27.9285 81.9227 29.7904C84.2552 32.1178 84.7217 35.8416 82.3892 38.169C80.9897 39.5654 79.5902 40.0309 77.7243 40.0309C76.3248 40.0309 74.9253 39.5654 73.9923 38.6344ZM187.817 25.1357C185.018 23.2738 184.552 19.55 186.418 17.2227C188.284 14.4298 192.015 13.9644 194.348 15.8262C197.147 17.6881 197.613 21.4119 195.747 23.7393C194.814 25.6012 192.948 26.0667 191.082 26.0667C189.683 26.0667 188.75 25.6012 187.817 25.1357ZM106.18 13.0334C105.247 10.2406 106.647 6.51678 109.446 5.58584C112.245 4.65489 115.977 6.05131 116.91 8.84415C118.309 11.637 116.91 15.3608 113.644 16.2917C113.178 16.7572 112.245 16.7572 111.312 16.7572C109.446 16.7572 107.113 15.3608 106.18 13.0334ZM151.897 11.637C148.631 11.1715 146.299 8.37868 146.765 5.12036C147.232 1.86205 150.031 -0.465315 153.296 0.0001585C156.562 0.465632 158.894 3.25847 158.428 6.51678C157.961 9.30962 155.629 11.637 152.83 11.637C152.363 11.637 151.897 11.637 151.897 11.637Z" fill="#FFDD00"/>
<path d="M146.299 161.054C145.832 158.261 147.698 155.934 150.497 155.934C153.296 155.468 155.629 157.33 155.629 160.123C156.095 162.916 154.229 165.243 151.43 165.243H150.964C148.631 165.243 146.299 163.381 146.299 161.054ZM178.487 151.279C177.088 148.952 177.554 146.159 179.887 144.762C182.219 143.366 185.018 143.831 186.418 146.159C187.817 148.486 187.35 151.279 185.018 152.675C184.085 153.141 183.152 153.606 182.219 153.606C180.82 153.606 179.42 152.675 178.487 151.279ZM202.278 128.005C199.946 126.609 199.013 123.816 200.412 121.489C201.812 119.161 204.611 118.23 206.943 119.627C209.276 121.023 210.209 123.816 208.809 126.143C207.876 128.005 206.477 128.936 204.611 128.936C203.678 128.471 203.211 128.005 202.278 128.005ZM207.876 90.7674C207.876 87.9745 210.209 85.6472 212.541 85.6472C215.34 85.6472 217.206 87.9745 217.206 90.3019C217.206 93.0947 214.874 94.9566 212.541 94.9566C210.209 94.9566 207.876 93.5602 207.876 90.7674ZM73.0593 79.1306C70.2603 78.6651 68.8608 75.8722 69.3273 73.5449C69.7938 71.2175 72.5928 69.3556 74.9252 69.8211C77.7242 70.2866 79.1237 73.0794 78.6572 75.4068C78.1907 77.7341 76.3247 79.1306 73.9922 79.1306C73.5257 79.1306 73.0593 79.1306 73.0593 79.1306ZM200.412 60.5116C199.013 58.1843 199.946 55.3914 202.278 53.995C204.611 52.5986 207.41 53.5295 208.809 55.8569C210.209 58.1843 209.276 60.9771 206.943 62.3735C206.01 62.839 205.544 62.839 204.611 62.839C202.745 62.839 200.879 61.908 200.412 60.5116ZM86.5876 47.9438C84.7216 46.082 84.2551 43.2891 86.1211 41.4272C87.9871 39.5653 90.7861 39.0999 92.652 40.9618C94.9845 42.8236 94.9845 45.6165 93.1185 47.9438C92.1855 48.8748 90.7861 49.3403 89.3866 49.3403C88.4536 49.3403 87.5206 48.8748 86.5876 47.9438ZM179.42 37.238C177.088 35.8415 176.621 32.5832 178.021 30.7213C179.42 28.394 182.686 27.9285 184.552 29.3249C186.884 30.7213 187.351 33.9797 185.951 35.8415C185.018 37.238 183.619 37.7034 182.219 37.7034C181.286 37.7034 180.353 37.7034 179.42 37.238ZM112.711 26.9976C111.778 24.6702 113.178 21.8773 115.51 20.9464C117.843 20.0155 120.642 21.4119 121.575 23.7392C122.508 26.0666 121.108 28.8594 118.776 29.7904C118.309 29.7904 117.843 30.2559 116.91 30.2559C115.51 30.2559 113.644 28.8594 112.711 26.9976ZM150.031 26.0666C147.232 25.6011 145.366 23.2738 145.832 20.9464C146.299 18.1536 148.631 16.2917 150.964 16.7571C153.763 17.2226 155.629 19.55 155.162 21.8773C154.696 24.2047 152.83 26.0666 150.497 26.0666H150.031Z" fill="#FFDD00"/>
<path d="M144.385 148.217L144.39 148.24L144.396 148.263C144.942 150.443 146.654 152.279 149.098 152.279H149.564C152 152.279 154.357 149.925 153.828 146.988C153.764 144.589 151.427 142.313 148.531 142.832C146.105 142.897 143.796 145.277 144.385 148.217ZM170.69 140.708L170.733 140.765L170.783 140.815C171.309 141.34 171.874 141.773 172.542 142.069C173.214 142.367 173.939 142.504 174.755 142.504H174.791C175.232 142.504 175.758 142.504 176.237 142.436C176.697 142.37 177.28 142.222 177.736 141.801C179.954 140.106 180.576 137.188 178.82 134.852C177.126 132.599 174.179 131.958 171.823 133.721C169.566 135.411 168.921 138.355 170.69 140.708ZM190.636 121.918L190.847 122.023H191.082H191.085H191.088H191.091H191.093H191.096H191.099H191.102H191.104H191.107H191.11H191.112H191.115H191.118H191.121H191.123H191.126H191.129H191.132H191.134H191.137H191.14H191.143H191.145H191.148H191.151H191.153H191.156H191.159H191.162H191.164H191.167H191.17H191.173H191.175H191.178H191.181H191.184H191.186H191.189H191.192H191.195H191.197H191.2H191.203H191.206H191.208H191.211H191.214H191.217H191.219H191.222H191.225H191.228H191.231H191.233H191.236H191.239H191.242H191.244H191.247H191.25H191.253H191.255H191.258H191.261H191.264H191.267H191.269H191.272H191.275H191.278H191.28H191.283H191.286H191.289H191.292H191.294H191.297H191.3H191.303H191.306H191.308H191.311H191.314H191.317H191.32H191.322H191.325H191.328H191.331H191.334H191.337H191.339H191.342H191.345H191.348H191.351H191.354H191.356H191.359H191.362H191.365H191.368H191.371H191.373H191.376H191.379H191.382H191.385H191.388H191.391H191.393H191.396H191.399H191.402H191.405H191.408H191.411H191.413H191.416H191.419H191.422H191.425H191.428H191.431H191.434H191.437H191.44H191.442H191.445H191.448H191.451H191.454H191.457H191.46H191.463H191.466H191.469H191.472H191.475H191.478H191.48H191.483H191.486H191.489H191.492H191.495H191.498H191.501H191.504H191.507H191.51H191.513H191.516H191.519H191.522H191.525H191.528H191.531H191.534H191.537H191.54H191.543H191.546H191.549H191.552H191.555H191.558H191.561H191.564H191.567H191.57H191.573H191.576H191.579H191.582H191.585H191.589H191.592H191.595H191.598H191.601H191.604H191.607H191.61H191.613H191.616H191.619H191.622H191.626H191.629H191.632H191.635H191.638H191.641H191.644H191.647H191.651H191.654H191.657H191.66H191.663H191.666H191.669H191.673H191.676H191.679H191.682H191.685H191.689H191.692H191.695H191.698H191.701H191.705H191.708H191.711H191.714H191.717H191.721H191.724H191.727H191.73H191.734H191.737H191.74H191.743H191.747H191.75H191.753H191.757H191.76H191.763H191.767H191.77H191.773H191.776H191.78H191.783H191.786H191.79H191.793H191.796H191.8H191.803H191.807H191.81H191.813H191.817H191.82H191.823H191.827H191.83H191.834H191.837H191.84H191.844H191.847H191.851H191.854H191.858H191.861H191.864H191.868H191.871H191.875H191.878H191.882H191.885H191.889H191.892H191.896H191.899H191.903H191.906H191.91H191.913H191.917H191.92H191.924H191.928H191.931H191.935H191.938H191.942H191.945H191.949H191.953H191.956H191.96H191.963H191.967H191.971H191.974H191.978H191.982H191.985H191.989H191.993H191.996H192H192.004H192.007H192.011H192.015H192.018H192.022H192.026H192.03H192.033H192.037H192.041H192.044H192.048H192.052H192.056H192.06H192.063H192.067H192.071H192.075H192.079H192.082H192.086H192.09H192.094H192.098H192.102H192.105H192.109H192.113H192.117H192.121H192.125H192.129H192.133H192.137H192.14H192.144H192.148H192.152H192.156H192.16H192.164H192.168H192.172H192.176H192.18H192.184H192.188H192.192H192.196H192.2H192.204H192.208H192.212H192.216H192.22H192.224H192.229H192.233H192.237H192.241H192.245H192.249H192.253H192.257H192.261H192.266H192.27H192.274H192.278H192.282H192.286H192.291H192.295H192.299H192.303H192.308H192.312H192.316H192.32H192.325H192.329H192.333H192.337H192.342H192.346H192.35H192.355H192.359H192.363H192.368H192.372H192.376H192.381H192.385H192.389H192.394H192.398H192.403H192.407H192.411H192.416H192.42H192.425H192.429H192.434H192.438H192.443H192.447H192.452H192.456H192.461H192.465H192.47H192.474H192.479H192.483H192.488H192.492H192.497H192.502H192.506H192.511H192.515H192.52H192.525H192.529H192.534H192.539H192.543H192.548H192.553H192.557H192.562H192.567H192.572H192.576H192.581H192.586H192.591H192.595H192.6H192.605H192.61H192.615H192.619H192.624H192.629H192.634H192.639H192.644H192.649H192.653H192.658H192.663H192.668H192.673H192.678H192.683H192.688H192.693H192.698H192.703H192.708H192.713H192.718H192.723H192.728H192.733H192.738H192.743H192.748H192.753H192.758H192.763H192.769H192.774H192.779H192.784H192.789H192.794H192.799H192.805H192.81H192.815H192.82H192.825H192.831H192.836H192.841H192.846H192.852H192.857H192.862H192.868H192.873H192.878H192.884H192.889H192.894H192.9H192.905H192.91H192.916H192.921H192.927H192.932H192.937H192.943H192.948C194.546 122.023 196.224 121.495 197.387 120.334L197.502 120.22L197.574 120.075C198.772 117.684 197.585 114.825 195.341 113.653C192.906 111.898 189.993 113.161 188.83 115.374C187.047 117.837 188.371 120.788 190.636 121.918ZM85.879 82.428L85.9982 82.4577H86.121H86.1238H86.1265H86.1292H86.1319H86.1346H86.1373H86.1399H86.1426H86.1452H86.1478H86.1505H86.1531H86.1557H86.1583H86.1609H86.1634H86.166H86.1686H86.1711H86.1736H86.1762H86.1787H86.1812H86.1837H86.1861H86.1886H86.1911H86.1935H86.196H86.1984H86.2009H86.2033H86.2057H86.2081H86.2105H86.2128H86.2152H86.2176H86.2199H86.2223H86.2246H86.2269H86.2293H86.2316H86.2339H86.2362H86.2384H86.2407H86.243H86.2452H86.2475H86.2497H86.2519H86.2542H86.2564H86.2586H86.2608H86.263H86.2652H86.2673H86.2695H86.2716H86.2738H86.2759H86.2781H86.2802H86.2823H86.2844H86.2865H86.2886H86.2907H86.2928H86.2948H86.2969H86.2989H86.301H86.303H86.3051H86.3071H86.3091H86.3111H86.3131H86.3151H86.3171H86.3191H86.321H86.323H86.325H86.3269H86.3289H86.3308H86.3327H86.3347H86.3366H86.3385H86.3404H86.3423H86.3442H86.3461H86.3479H86.3498H86.3517H86.3535H86.3554H86.3572H86.3591H86.3609H86.3627H86.3646H86.3664H86.3682H86.37H86.3718H86.3736H86.3753H86.3771H86.3789H86.3807H86.3824H86.3842H86.3859H86.3877H86.3894H86.3911H86.3929H86.3946H86.3963H86.398H86.3997H86.4014H86.4031H86.4048H86.4065H86.4082H86.4099H86.4115H86.4132H86.4148H86.4165H86.4182H86.4198H86.4214H86.4231H86.4247H86.4263H86.4279H86.4296H86.4312H86.4328H86.4344H86.436H86.4376H86.4392H86.4408H86.4423H86.4439H86.4455H86.4471H86.4486H86.4502H86.4517H86.4533H86.4548H86.4564H86.4579H86.4595H86.461H86.4625H86.4641H86.4656H86.4671H86.4686H86.4701H86.4716H86.4731H86.4746H86.4761H86.4776H86.4791H86.4806H86.4821H86.4836H86.4851H86.4865H86.488H86.4895H86.491H86.4924H86.4939H86.4953H86.4968H86.4982H86.4997H86.5011H86.5026H86.504H86.5055H86.5069H86.5083H86.5098H86.5112H86.5126H86.5141H86.5155H86.5169H86.5183H86.5198H86.5212H86.5226H86.524H86.5254H86.5268H86.5282H86.5296H86.531H86.5324H86.5338H86.5352H86.5366H86.538H86.5394H86.5408H86.5422H86.5436H86.545H86.5463H86.5477H86.5491H86.5505H86.5519H86.5533H86.5546H86.556H86.5574H86.5588H86.5601H86.5615H86.5629H86.5643H86.5656H86.567H86.5684H86.5698H86.5711H86.5725H86.5739H86.5752H86.5766H86.578H86.5793H86.5807H86.5821H86.5834H86.5848H86.5862H86.5875H86.5889H86.5903H86.5916H86.593H86.5944H86.5957H86.5971H86.5985H86.5998H86.6012H86.6026H86.6039H86.6053H86.6067H86.6081H86.6094H86.6108H86.6122H86.6136H86.6149H86.6163H86.6177H86.6191H86.6204H86.6218H86.6232H86.6246H86.626H86.6273H86.6287H86.6301H86.6315H86.6329H86.6343H86.6357H86.6371H86.6385H86.6399H86.6412H86.6426H86.644H86.6455H86.6469H86.6483H86.6497H86.6511H86.6525H86.6539H86.6553H86.6567H86.6582H86.6596H86.661H86.6624H86.6639H86.6653H86.6667H86.6682H86.6696H86.671H86.6725H86.6739H86.6754H86.6768H86.6783H86.6797H86.6812H86.6827H86.6841H86.6856H86.6871H86.6885H86.69H86.6915H86.693H86.6945H86.6959H86.6974H86.6989H86.7004H86.7019H86.7034H86.7049H86.7065H86.708H86.7095H86.711H86.7125H86.7141H86.7156H86.7171H86.7187H86.7202H86.7218H86.7233H86.7249H86.7264H86.728H86.7296H86.7312H86.7327H86.7343H86.7359H86.7375H86.7391H86.7407H86.7423H86.7439H86.7455H86.7471H86.7487H86.7504H86.752H86.7536H86.7553H86.7569H86.7586H86.7602H86.7619H86.7636H86.7652H86.7669H86.7686H86.7703H86.7719H86.7736H86.7753H86.7771H86.7788H86.7805H86.7822H86.7839H86.7857H86.7874H86.7891H86.7909H86.7926H86.7944H86.7962H86.7979H86.7997H86.8015H86.8033H86.8051H86.8069H86.8087H86.8105H86.8123H86.8142H86.816H86.8178H86.8197H86.8215H86.8234H86.8253H86.8271H86.829H86.8309H86.8328H86.8347H86.8366H86.8385H86.8404H86.8423H86.8443H86.8462H86.8481H86.8501H86.8521H86.854H86.856H86.858H86.86H86.862H86.864H86.866H86.868H86.87H86.872H86.8741H86.8761H86.8782H86.8802H86.8823H86.8844H86.8865H86.8886H86.8907H86.8928H86.8949H86.897H86.8991H86.9013H86.9034H86.9056H86.9077H86.9099H86.9121H86.9143H86.9165H86.9187H86.9209H86.9231H86.9254H86.9276H86.9298H86.9321H86.9344H86.9366H86.9389H86.9412H86.9435H86.9458H86.9481H86.9505H86.9528H86.9551H86.9575H86.9599H86.9622H86.9646H86.967H86.9694H86.9718H86.9742H86.9766H86.9791H86.9815H86.984H86.9865H86.9889H86.9914H86.9939H86.9964H86.9989H87.0014H87.004H87.0065H87.0091H87.0116H87.0142H87.0168H87.0194H87.022H87.0246H87.0272H87.0299H87.0325H87.0352H87.0378H87.0405H87.0432H87.0459H87.0486H87.0513H87.054C88.1519 82.4577 89.1861 82.1828 90.0321 81.5688C90.8858 80.9493 91.4727 80.0387 91.756 78.9079C92.0685 77.6607 91.7454 76.3415 91.1182 75.2985C90.4909 74.2553 89.477 73.3512 88.2291 73.0399C86.9813 72.7286 85.6609 73.0503 84.6161 73.6758C83.5714 74.3012 82.6645 75.3129 82.3521 76.5599C82.0396 77.8071 82.3627 79.1263 82.9899 80.1693C83.6172 81.2125 84.631 82.1167 85.879 82.428ZM188.322 66.5451L188.35 66.6008L188.385 66.6526C188.862 67.3673 189.42 68.0931 190.12 68.5589C190.844 69.0405 191.69 69.2231 192.632 68.9586C192.872 68.9569 193.221 68.9468 193.579 68.8873C193.958 68.8242 194.487 68.6852 194.922 68.3222C197.295 67.0448 197.736 64.1096 196.641 61.9253C195.399 59.4453 192.394 58.9723 190.169 60.0821C187.685 61.3216 187.209 64.3223 188.322 66.5451ZM96.1441 57.03L96.2589 57.1446L96.404 57.217C96.4344 57.2321 96.4651 57.2475 96.4961 57.263C97.3594 57.6945 98.4771 58.2531 99.6494 58.2531C100.94 58.2531 102.112 57.6045 103.155 56.5646L103.205 56.5143L103.248 56.4575C104.995 54.1334 104.381 51.2522 102.688 49.5631L102.638 49.5129L102.581 49.4704C100.254 47.7291 97.37 48.3399 95.6776 50.0286L95.6273 50.0788L95.5846 50.1356C93.8377 52.4597 94.4513 55.3409 96.1441 57.03ZM199.013 85.5779C196.523 85.5779 194.281 87.9622 194.281 90.7672C194.281 92.1843 194.846 93.509 195.772 94.3561C196.675 95.1819 197.953 95.5589 199.242 95.0198C201.5 94.9088 203.745 93.1665 203.745 90.3017C203.745 87.9691 201.976 85.5779 199.013 85.5779ZM170.69 41.2916C168.934 43.6276 169.556 46.5459 171.774 48.2414C172.221 48.6535 172.79 48.8051 173.192 48.8719C173.624 48.9438 174.042 48.9437 174.273 48.9436H174.289C176.107 48.9436 177.306 47.7438 178.176 46.8741C178.204 46.8456 178.233 46.8174 178.26 46.7896C179.24 45.8125 179.504 44.4234 179.364 43.23C179.226 42.0606 178.668 40.826 177.666 40.1452C175.314 38.4019 172.379 39.0452 170.69 41.2916ZM120.195 33.0846C119.069 33.6466 118.095 34.6178 117.532 35.7424C116.98 36.843 116.781 38.1891 117.367 39.4475C118.015 41.7999 120.342 42.8925 122.041 42.8925C122.052 42.8925 122.062 42.8925 122.073 42.8925C122.526 42.8929 123.274 42.8935 123.988 42.282C126.649 41.1205 127.879 38.2774 126.667 35.8588C126.104 34.7341 125.13 33.7629 124.004 33.201C122.872 32.6365 121.483 32.4422 120.195 33.0846ZM149.686 29.7227C147.161 29.1698 144.933 31.1053 144.39 33.7601C143.805 36.1532 145.472 38.2918 147.883 39.012C147.951 39.1098 148.038 39.2077 148.149 39.2921C148.258 39.3751 148.487 39.5178 148.806 39.5178C148.981 39.5178 149.2 39.4727 149.404 39.3279C149.443 39.3001 149.479 39.2705 149.512 39.2394C151.929 39.1577 153.759 37.1471 153.828 35.0335C154.337 32.6815 152.632 29.8003 149.686 29.7227ZM148.631 38.1687H147.891C147.912 38.1109 147.939 38.0514 147.973 37.9929C148.183 38.064 148.403 38.1231 148.631 38.1687Z" stroke="#FFDC00" stroke-width="2"/>
</g>
<defs>
<clipPath id="clip0">
<rect width="136" height="143" fill="white" transform="translate(0 221) rotate(-90)"/>
</clipPath>
<clipPath id="clip1">
<rect width="181" height="182" fill="white" transform="translate(53)"/>
</clipPath>
</defs>
</svg>
