<svg width="342" height="297" viewBox="0 0 342 297" fill="none" xmlns="http://www.w3.org/2000/svg">
<path d="M157.536 257.664L186.35 250.063L193.952 221.248L222.766 213.647L230.368 184.832L259.182 177.231L266.784 148.416L295.598 140.815L303.2 112" stroke="#8C9DD0" stroke-width="3" stroke-miterlimit="10" stroke-linecap="round" stroke-linejoin="round"/>
<path d="M166 275.907L195.345 267.775L203.477 238.43L232.822 230.298L240.953 200.953L270.298 192.822L278.43 163.477L307.775 155.345L315.907 126" stroke="#FFDC00" stroke-width="2" stroke-miterlimit="10" stroke-linecap="round" stroke-linejoin="round"/>
<path d="M187 284.128L216.08 277.676L222.532 248.596L251.612 242.144L258.064 213.064L287.144 206.612L293.596 177.532L322.676 171.08L329.128 142" stroke="#FFDC00" stroke-miterlimit="10" stroke-linecap="round" stroke-linejoin="round"/>
<path d="M138.412 8.70279L138.517 8.59779L138.6 8.47422C139.695 6.8334 139.695 4.66079 138.6 3.01997L138.517 2.8964L138.412 2.7914C137.602 1.9821 136.57 1.5 135.456 1.5C134.341 1.5 133.309 1.9821 132.499 2.7914C131.689 3.60067 131.206 4.63216 131.206 5.74709C131.206 6.86203 131.689 7.89352 132.499 8.70279C133.309 9.51209 134.341 9.99419 135.456 9.99419C136.57 9.99419 137.602 9.51209 138.412 8.70279Z" stroke="#8C9DD0" stroke-width="3"/>
<path d="M161.323 37.5L162.383 36.4388L161.323 37.5C162.133 38.3093 163.165 38.7914 164.279 38.7914C165.349 38.7914 166.342 38.3477 167.136 37.5971C168.122 36.8717 168.529 35.732 168.529 34.6864C168.529 33.5915 168.096 32.4478 167.236 31.5886C166.426 30.7793 165.394 30.2972 164.279 30.2972C163.165 30.2972 162.133 30.7793 161.323 31.5886C160.513 32.3979 160.03 33.4294 160.03 34.5443C160.03 35.6592 160.513 36.6907 161.323 37.5Z" stroke="#8C9DD0" stroke-width="3"/>
<path d="M190.526 66.676C191.336 67.4853 192.368 67.9674 193.482 67.9674C194.597 67.9674 195.629 67.4853 196.439 66.676C197.249 65.8667 197.732 64.8352 197.732 63.7203C197.732 62.6054 197.249 61.5739 196.439 60.7646C195.629 59.9553 194.597 59.4732 193.482 59.4732C192.368 59.4732 191.336 59.9553 190.526 60.7646C189.716 61.5739 189.233 62.6054 189.233 63.7203C189.233 64.8352 189.716 65.8667 190.526 66.676Z" fill="#FFDC00" stroke="#FFDC00" stroke-width="3"/>
<path d="M219.35 95.4731C220.16 96.2824 221.191 96.7645 222.306 96.7645C223.375 96.7645 224.368 96.3208 225.163 95.5702C226.148 94.8448 226.556 93.7051 226.556 92.6595C226.556 91.5646 226.123 90.4209 225.262 89.5617C224.452 88.7524 223.421 88.2703 222.306 88.2703C221.191 88.2703 220.16 88.7524 219.35 89.5617C218.54 90.3709 218.056 91.4024 218.056 92.5174C218.056 93.6323 218.54 94.6638 219.35 95.4731Z" stroke="#8C9DD0" stroke-width="3"/>
<path d="M248.552 124.649L249.613 123.588L248.552 124.649C249.362 125.458 250.394 125.94 251.509 125.94C252.623 125.94 253.655 125.458 254.465 124.649C255.275 123.84 255.759 122.808 255.759 121.693C255.759 120.578 255.275 119.547 254.465 118.738C253.655 117.928 252.623 117.446 251.509 117.446C250.394 117.446 249.362 117.928 248.552 118.738C247.742 119.547 247.259 120.578 247.259 121.693C247.259 122.808 247.742 123.84 248.552 124.649Z" stroke="#8C9DD0" stroke-width="3"/>
<path d="M112.244 28.5574L111.183 29.6185L112.244 28.5574C111.434 27.7481 110.402 27.266 109.287 27.266C108.172 27.266 107.141 27.7481 106.331 28.5574C105.521 29.3666 105.037 30.3981 105.037 31.5131C105.037 32.628 105.521 33.6595 106.331 34.4688C107.141 35.2781 108.172 35.7602 109.287 35.7602C110.402 35.7602 111.434 35.2781 112.244 34.4688C113.054 33.6595 113.537 32.628 113.537 31.5131C113.537 30.3981 113.054 29.3666 112.244 28.5574Z" stroke="#8C9DD0" stroke-width="3"/>
<path d="M135.534 63.6447C136.344 64.454 137.375 64.9361 138.49 64.9361C139.605 64.9361 140.636 64.454 141.446 63.6447C142.256 62.8354 142.74 61.8039 142.74 60.689C142.74 59.574 142.256 58.5425 141.446 57.7333C140.636 56.924 139.605 56.4419 138.49 56.4419C137.375 56.4419 136.344 56.924 135.534 57.7333C134.724 58.5425 134.24 59.574 134.24 60.689C134.24 61.8039 134.724 62.8354 135.534 63.6447Z" stroke="#8C9DD0" stroke-width="3"/>
<path d="M164.357 92.4419C165.167 93.2512 166.199 93.7333 167.314 93.7333C168.383 93.7333 169.376 93.2896 170.17 92.539C171.156 91.8136 171.563 90.6739 171.563 89.6282C171.563 88.5334 171.13 87.3897 170.27 86.5305C169.46 85.7212 168.428 85.2391 167.314 85.2391C166.199 85.2391 165.167 85.7212 164.357 86.5305C163.547 87.3397 163.064 88.3712 163.064 89.4862C163.064 90.6011 163.547 91.6326 164.357 92.4419Z" stroke="#8C9DD0" stroke-width="3"/>
<path d="M193.56 121.618C194.37 122.427 195.402 122.909 196.516 122.909C197.631 122.909 198.663 122.427 199.473 121.618C200.283 120.809 200.766 119.777 200.766 118.662C200.766 117.547 200.283 116.516 199.473 115.706C198.663 114.897 197.631 114.415 196.516 114.415C195.402 114.415 194.37 114.897 193.56 115.706C192.75 116.516 192.267 117.547 192.267 118.662C192.267 119.777 192.75 120.809 193.56 121.618Z" stroke="#8C9DD0" stroke-width="3"/>
<path d="M228.863 144.732L228.781 144.609L228.676 144.504C227.866 143.694 226.834 143.212 225.719 143.212C224.605 143.212 223.573 143.694 222.763 144.504C221.953 145.313 221.47 146.344 221.47 147.459C221.47 148.574 221.953 149.606 222.763 150.415C223.573 151.224 224.605 151.706 225.719 151.706C226.834 151.706 227.866 151.224 228.676 150.415C229.458 149.634 229.685 148.498 229.685 147.601C229.685 146.659 229.439 145.595 228.863 144.732Z" fill="#FFDC00" stroke="#FFDC00" stroke-width="3"/>
<path d="M80.5411 60.6134C81.3512 61.4227 82.383 61.9048 83.4976 61.9048C84.6122 61.9048 85.644 61.4227 86.454 60.6134C87.2641 59.8042 87.7472 58.7727 87.7472 57.6577C87.7472 56.5428 87.2641 55.5113 86.454 54.702C85.644 53.8927 84.6122 53.4106 83.4976 53.4106C82.383 53.4106 81.3512 53.8927 80.5411 54.702C79.7311 55.5113 79.248 56.5428 79.248 57.6577C79.248 58.7727 79.7311 59.8042 80.5411 60.6134Z" stroke="#8C9DD0" stroke-width="3"/>
<path d="M115.657 89.4106L115.762 89.3056L115.844 89.1821C116.939 87.5412 116.939 85.3686 115.844 83.7278L115.762 83.6042L115.657 83.4992C114.847 82.6899 113.815 82.2078 112.7 82.2078C111.586 82.2078 110.554 82.6899 109.744 83.4992C108.934 84.3085 108.451 85.34 108.451 86.4549C108.451 87.5699 108.934 88.6014 109.744 89.4106C110.554 90.2199 111.586 90.702 112.7 90.702C113.815 90.702 114.847 90.2199 115.657 89.4106Z" stroke="#8C9DD0" stroke-width="3"/>
<path d="M138.568 118.586C139.378 119.396 140.409 119.878 141.524 119.878C142.639 119.878 143.67 119.396 144.48 118.586C145.291 117.777 145.774 116.746 145.774 115.631C145.774 114.516 145.291 113.484 144.48 112.675C143.67 111.866 142.639 111.384 141.524 111.384C140.409 111.384 139.378 111.866 138.568 112.675C137.758 113.484 137.274 114.516 137.274 115.631C137.274 116.746 137.758 117.777 138.568 118.586Z" stroke="#8C9DD0" stroke-width="3"/>
<path d="M173.683 147.384L173.788 147.279L173.871 147.155C174.966 145.514 174.966 143.342 173.871 141.701L173.788 141.577L173.683 141.472C172.873 140.663 171.842 140.181 170.727 140.181C169.612 140.181 168.581 140.663 167.77 141.472C166.96 142.281 166.477 143.313 166.477 144.428C166.477 145.543 166.96 146.574 167.77 147.384C168.581 148.193 169.612 148.675 170.727 148.675C171.842 148.675 172.873 148.193 173.683 147.384Z" fill="#FFDC00" stroke="#FFDC00" stroke-width="3"/>
<path d="M196.594 176.56C197.404 177.369 198.436 177.851 199.551 177.851C200.665 177.851 201.697 177.369 202.507 176.56C203.317 175.751 203.8 174.719 203.8 173.604C203.8 172.489 203.317 171.458 202.507 170.648C201.697 169.839 200.665 169.357 199.551 169.357C198.436 169.357 197.404 169.839 196.594 170.648C195.784 171.458 195.301 172.489 195.301 173.604C195.301 174.719 195.784 175.751 196.594 176.56Z" stroke="#8C9DD0" stroke-width="3"/>
<path d="M60.6644 86.3792L60.7695 86.2742L60.8519 86.1506C61.9468 84.5098 61.9468 82.3372 60.8519 80.6964L60.7695 80.5728L60.6644 80.4678C59.8544 79.6585 58.8225 79.1764 57.7079 79.1764C56.5933 79.1764 55.5615 79.6585 54.7515 80.4678C53.9415 81.2771 53.4583 82.3085 53.4583 83.4235C53.4583 84.5384 53.9415 85.5699 54.7515 86.3792C55.5615 87.1885 56.5933 87.6706 57.7079 87.6706C58.8225 87.6706 59.8544 87.1885 60.6644 86.3792Z" stroke="#8C9DD0" stroke-width="3"/>
<path d="M83.5751 115.555C84.3852 116.364 85.417 116.847 86.5316 116.847C87.6462 116.847 88.678 116.364 89.4881 115.555C90.3481 114.696 90.7812 113.552 90.7812 112.457C90.7812 111.412 90.3736 110.272 89.3881 109.547C88.5939 108.796 87.6009 108.352 86.5316 108.352C85.417 108.352 84.3852 108.834 83.5751 109.644C82.7651 110.453 82.282 111.485 82.282 112.599C82.282 113.714 82.7651 114.746 83.5751 115.555Z" fill="#FFDC00" stroke="#FFDC00" stroke-width="3"/>
<path d="M118.691 144.352L118.796 144.247L118.879 144.124C119.973 142.483 119.973 140.31 118.879 138.67L118.796 138.546L118.691 138.441C117.881 137.632 116.849 137.15 115.735 137.15C114.62 137.15 113.588 137.632 112.778 138.441C111.968 139.25 111.485 140.282 111.485 141.397C111.485 142.512 111.968 143.543 112.778 144.352C113.588 145.162 114.62 145.644 115.735 145.644C116.849 145.644 117.881 145.162 118.691 144.352Z" stroke="#8C9DD0" stroke-width="3"/>
<path d="M141.602 173.528C142.412 174.338 143.444 174.82 144.558 174.82C145.673 174.82 146.705 174.338 147.515 173.528C148.325 172.719 148.808 171.688 148.808 170.573C148.808 169.458 148.325 168.426 147.515 167.617C146.705 166.808 145.673 166.326 144.558 166.326C143.444 166.326 142.412 166.808 141.602 167.617C140.792 168.426 140.309 169.458 140.309 170.573C140.309 171.688 140.792 172.719 141.602 173.528Z" stroke="#8C9DD0" stroke-width="3"/>
<path d="M176.717 202.326L176.823 202.221L176.905 202.097C178 200.456 178 198.284 176.905 196.643L176.823 196.519L176.717 196.414C175.907 195.605 174.876 195.123 173.761 195.123C172.646 195.123 171.615 195.605 170.805 196.414C169.994 197.223 169.511 198.255 169.511 199.37C169.511 200.485 169.994 201.516 170.805 202.326C171.615 203.135 172.646 203.617 173.761 203.617C174.876 203.617 175.907 203.135 176.717 202.326Z" stroke="#8C9DD0" stroke-width="3"/>
<path d="M28.5827 112.145C29.3927 112.954 30.4245 113.437 31.5391 113.437C32.6084 113.437 33.6015 112.993 34.3956 112.242C35.3812 111.517 35.7888 110.377 35.7888 109.332C35.7888 108.237 35.3556 107.093 34.4956 106.234C33.6856 105.424 32.6537 104.942 31.5391 104.942C30.4245 104.942 29.3927 105.424 28.5827 106.234C27.7727 107.043 27.2895 108.075 27.2895 109.189C27.2895 110.304 27.7727 111.336 28.5827 112.145Z" stroke="#8C9DD0" stroke-width="3"/>
<path d="M63.6985 141.321L63.8036 141.216L63.8861 141.093C64.9809 139.452 64.9809 137.279 63.8861 135.638L63.8036 135.515L63.6985 135.41C62.8885 134.6 61.8566 134.118 60.742 134.118C59.6274 134.118 58.5956 134.6 57.7856 135.41C56.9756 136.219 56.4924 137.25 56.4924 138.365C56.4924 139.48 56.9756 140.512 57.7856 141.321C58.5956 142.13 59.6274 142.613 60.742 142.613C61.8566 142.613 62.8885 142.13 63.6985 141.321Z" stroke="#8C9DD0" stroke-width="3"/>
<path d="M86.6093 170.118C87.4193 170.928 88.4511 171.41 89.5657 171.41C90.635 171.41 91.628 170.966 92.4222 170.215C93.4077 169.49 93.8154 168.35 93.8154 167.305C93.8154 166.21 93.3822 165.066 92.5222 164.207C91.7121 163.398 90.6803 162.916 89.5657 162.916C88.4511 162.916 87.4193 163.398 86.6093 164.207C85.7992 165.016 85.3161 166.048 85.3161 167.163C85.3161 168.278 85.7992 169.309 86.6093 170.118Z" stroke="#8C9DD0" stroke-width="3"/>
<path d="M115.812 199.294C116.622 200.104 117.654 200.586 118.769 200.586C119.883 200.586 120.915 200.104 121.725 199.294C122.535 198.485 123.018 197.454 123.018 196.339C123.018 195.224 122.535 194.192 121.725 193.383C120.915 192.574 119.883 192.092 118.769 192.092C117.654 192.092 116.622 192.574 115.812 193.383C115.002 194.192 114.519 195.224 114.519 196.339C114.519 197.454 115.002 198.485 115.812 199.294Z" stroke="#8C9DD0" stroke-width="3"/>
<path d="M144.636 228.47C145.446 229.279 146.478 229.762 147.592 229.762C148.707 229.762 149.739 229.279 150.549 228.47C151.409 227.611 151.842 226.467 151.842 225.372C151.842 224.327 151.434 223.187 150.449 222.462C149.654 221.711 148.661 221.267 147.592 221.267C146.478 221.267 145.446 221.749 144.636 222.559C143.826 223.368 143.343 224.4 143.343 225.514C143.343 226.629 143.826 227.661 144.636 228.47Z" stroke="#8C9DD0" stroke-width="3"/>
<path d="M8.70608 138.29L8.81118 138.185L8.89363 138.061C9.98852 136.421 9.98852 134.248 8.89363 132.607L8.81118 132.484L8.70608 132.379C7.89604 131.569 6.86423 131.087 5.74962 131.087C4.63502 131.087 3.6032 131.569 2.79316 132.379C1.98314 133.188 1.5 134.219 1.5 135.334C1.5 136.449 1.98314 137.481 2.79316 138.29C3.6032 139.099 4.63502 139.581 5.74962 139.581C6.86423 139.581 7.89604 139.099 8.70608 138.29Z" stroke="#8C9DD0" stroke-width="3"/>
<path d="M31.6168 161.176L32.677 162.237L31.6168 161.176C30.8068 161.985 30.3237 163.016 30.3237 164.131C30.3237 165.246 30.8068 166.278 31.6168 167.087C32.4269 167.896 33.4587 168.379 34.5733 168.379C35.6425 168.379 36.6356 167.935 37.4298 167.184C38.4153 166.459 38.8229 165.319 38.8229 164.274C38.8229 163.179 38.3898 162.035 37.5298 161.176C36.7197 160.366 35.6879 159.884 34.5733 159.884C33.4587 159.884 32.4269 160.366 31.6168 161.176Z" stroke="#8C9DD0" stroke-width="3"/>
<path d="M60.8196 196.263L61.8798 195.202L60.8196 196.263C61.6297 197.072 62.6615 197.554 63.7761 197.554C64.8907 197.554 65.9225 197.072 66.7325 196.263C67.5426 195.454 68.0257 194.422 68.0257 193.307C68.0257 192.192 67.5426 191.161 66.7325 190.352C65.9225 189.542 64.8907 189.06 63.7761 189.06C62.6615 189.06 61.6297 189.542 60.8196 190.352C60.0096 191.161 59.5265 192.192 59.5265 193.307C59.5265 194.422 60.0096 195.454 60.8196 196.263Z" stroke="#8C9DD0" stroke-width="3"/>
<path d="M89.6433 225.06C90.4533 225.869 91.4851 226.351 92.5997 226.351C93.669 226.351 94.662 225.908 95.4562 225.157C96.4418 224.432 96.8494 223.292 96.8494 222.246C96.8494 221.152 96.4162 220.008 95.5562 219.149C94.7462 218.339 93.7143 217.857 92.5997 217.857C91.4851 217.857 90.4533 218.339 89.6433 219.149C88.8333 219.958 88.3501 220.989 88.3501 222.104C88.3501 223.219 88.8333 224.251 89.6433 225.06Z" stroke="#8C9DD0" stroke-width="3"/>
<path d="M118.322 256.019C119.132 256.828 120.164 257.31 121.278 257.31C122.348 257.31 123.341 256.866 124.135 256.116C125.12 255.39 125.528 254.251 125.528 253.205C125.528 252.11 125.095 250.966 124.235 250.107C123.425 249.298 122.393 248.816 121.278 248.816C120.164 248.816 119.132 249.298 118.322 250.107C117.512 250.917 117.029 251.948 117.029 253.063C117.029 254.178 117.512 255.209 118.322 256.019Z" stroke="#8C9DD0" stroke-width="3"/>
</svg>
