<svg width="30" height="18" viewBox="0 0 30 18" fill="none" xmlns="http://www.w3.org/2000/svg">
<rect x="1" y="1" width="28" height="16" rx="1" stroke="#3E245C" stroke-width="2"/>
<path d="M10.18 11.06H7.6L6.9 13H6.08L8.73 5.89H9.11L11.77 13H10.9L10.18 11.06ZM7.87 10.34H9.93L9.15 8.21L8.9 7.15H8.89L8.64 8.23L7.87 10.34ZM12.6196 6H13.4196V8.49H13.4596C13.6129 8.29667 13.8063 8.14667 14.0396 8.04C14.2796 7.93333 14.5396 7.88 14.8196 7.88C15.4663 7.88 15.9496 8.08667 16.2696 8.5C16.5963 8.91333 16.7596 9.55333 16.7596 10.42C16.7596 11.2933 16.5463 11.9567 16.1196 12.41C15.6929 12.8633 15.0929 13.09 14.3196 13.09C13.9463 13.09 13.6063 13.05 13.2996 12.97C12.9996 12.89 12.7729 12.8033 12.6196 12.71V6ZM14.6796 8.58C14.3463 8.58 14.0763 8.67333 13.8696 8.86C13.6629 9.04667 13.5129 9.31 13.4196 9.65V12.17C13.5463 12.2433 13.6996 12.3 13.8796 12.34C14.0596 12.3733 14.2463 12.39 14.4396 12.39C14.8929 12.39 15.2529 12.23 15.5196 11.91C15.7929 11.59 15.9296 11.09 15.9296 10.41C15.9296 10.15 15.9063 9.90667 15.8596 9.68C15.8129 9.45333 15.7396 9.26 15.6396 9.1C15.5396 8.94 15.4096 8.81333 15.2496 8.72C15.0963 8.62667 14.9063 8.58 14.6796 8.58ZM21.43 12.67C21.23 12.8167 20.9933 12.9267 20.72 13C20.4467 13.08 20.16 13.12 19.86 13.12C19.4733 13.12 19.1467 13.06 18.88 12.94C18.6133 12.8133 18.3933 12.6367 18.22 12.41C18.0533 12.1767 17.93 11.9 17.85 11.58C17.7767 11.2533 17.74 10.8933 17.74 10.5C17.74 9.65333 17.9267 9.00667 18.3 8.56C18.6733 8.10667 19.21 7.88 19.91 7.88C20.23 7.88 20.5 7.90667 20.72 7.96C20.9467 8.00667 21.15 8.07667 21.33 8.17L21.1 8.86C20.9467 8.77333 20.7767 8.70667 20.59 8.66C20.4033 8.60667 20.2033 8.58 19.99 8.58C19.0433 8.58 18.57 9.22 18.57 10.5C18.57 10.7533 18.5933 10.9967 18.64 11.23C18.6933 11.4567 18.7767 11.66 18.89 11.84C19.01 12.0133 19.1633 12.1533 19.35 12.26C19.5433 12.3667 19.78 12.42 20.06 12.42C20.3 12.42 20.5133 12.3833 20.7 12.31C20.8933 12.2367 21.05 12.1533 21.17 12.06L21.43 12.67Z" fill="#3E245C"/>
<line x1="23.5" y1="5" x2="23.5" y2="14" stroke="#FFDC00"/>
</svg>
