<svg width="71" height="70" viewBox="0 0 71 70" fill="none" xmlns="http://www.w3.org/2000/svg">
<path d="M7.90114 48.3978L7.90179 48.4005C9.49587 55.1708 15.4932 60.6751 22.092 62.1739L22.4813 62.2623V62.6614V69.1195C22.4813 69.3937 22.8123 69.6241 23.1243 69.4312L32.0285 62.2718L32.152 62.1725L32.3101 62.1624L45.2351 61.3424L45.2367 61.3423C49.3614 61.094 53.4907 59.1527 56.8223 56.2128C60.153 53.2737 62.6524 49.3662 63.5498 45.2326L7.90114 48.3978ZM7.90114 48.3978L0.925788 19.4902C0.925782 19.4902 0.925776 19.4902 0.92577 19.4901C-1.056 11.2712 4.07736 4.19475 12.1685 3.60218C12.1691 3.60214 12.1696 3.6021 12.1702 3.60206L58.632 0.527196C58.6325 0.527166 58.633 0.527137 58.6335 0.527108C62.751 0.279631 66.075 1.7407 68.1402 4.25373C70.2071 6.7688 71.062 10.3974 70.1161 14.5766L70.1148 14.5822L63.5501 45.2313L7.90114 48.3978Z" stroke="#8C9DD0" stroke-miterlimit="10"/>
</svg>
