<svg width="17" height="18" viewBox="0 0 17 18" fill="none" xmlns="http://www.w3.org/2000/svg">
<path d="M8.5 0.75C6.08763 0.75 4.125 2.71263 4.125 5.125C4.125 7.53737 6.08763 9.5 8.5 9.5C10.9124 9.5 12.875 7.53737 12.875 5.125C12.875 2.71263 10.9124 0.75 8.5 0.75ZM8.5 7.75C7.05275 7.75 5.875 6.57225 5.875 5.125C5.875 3.67775 7.05275 2.5 8.5 2.5C9.94725 2.5 11.125 3.67775 11.125 5.125C11.125 6.57225 9.94725 7.75 8.5 7.75ZM16.375 17.375V16.5C16.375 13.1234 13.6266 10.375 10.25 10.375H6.75C3.3725 10.375 0.625 13.1234 0.625 16.5V17.375H2.375V16.5C2.375 14.0876 4.33763 12.125 6.75 12.125H10.25C12.6624 12.125 14.625 14.0876 14.625 16.5V17.375H16.375Z" fill="#8C9DD0"/>
</svg>
