<svg width="24" height="23" viewBox="0 0 24 23" fill="none" xmlns="http://www.w3.org/2000/svg">
<path d="M7.24833 1.61746L7.24839 1.6176L7.2595 1.61263C9.69063 0.524064 12.41 0.49369 15.4531 1.57411C18.6787 2.7193 20.8525 4.49203 22.0498 6.86374L22.0496 6.8638L22.0554 6.87453C23.2767 9.15431 23.3946 11.744 22.3485 14.6903C21.3027 17.636 19.5606 19.6209 17.1349 20.707C14.7101 21.7928 11.9051 21.7978 8.67952 20.6526C5.63641 19.5722 3.545 17.8338 2.3446 15.4559C1.14684 13.0833 1.04645 10.4443 2.0923 7.49853C3.13834 4.55227 4.86281 2.61666 7.24833 1.61746Z" stroke="#FFDC00"/>
</svg>
