<svg width="445" height="468" viewBox="0 0 445 468" fill="none" xmlns="http://www.w3.org/2000/svg">
<path d="M119.983 375.393L138.222 393.006" stroke="#8C9DD0" stroke-width="6" stroke-miterlimit="10" stroke-linecap="round" stroke-linejoin="round"/>
<path d="M57.7178 313.118L91.0516 346.457" stroke="#8C9DD0" stroke-width="6" stroke-miterlimit="10" stroke-linecap="round" stroke-linejoin="round"/>
<path d="M114.322 316.892L239.481 442.072" stroke="#8C9DD0" stroke-width="6" stroke-miterlimit="10" stroke-linecap="round" stroke-linejoin="round"/>
<path d="M50.1705 253.359L75.957 278.521" stroke="#FFDC00" stroke-width="6" stroke-miterlimit="10" stroke-linecap="round" stroke-linejoin="round"/>
<path d="M204.261 354.635L314.325 464.717" stroke="#8C9DD0" stroke-width="6" stroke-miterlimit="10" stroke-linecap="round" stroke-linejoin="round"/>
<path d="M37.5917 188.568L155.204 306.198" stroke="#8C9DD0" stroke-width="6" stroke-miterlimit="10" stroke-linecap="round" stroke-linejoin="round"/>
<path d="M130.046 228.197L324.388 422.571" stroke="#FFDC00" stroke-width="6" stroke-miterlimit="10" stroke-linecap="round" stroke-linejoin="round"/>
<path d="M49.5416 147.68L90.4227 189.197" stroke="#8C9DD0" stroke-width="6" stroke-miterlimit="10" stroke-linecap="round" stroke-linejoin="round"/>
<path d="M290.425 336.393L336.967 382.942" stroke="#8C9DD0" stroke-width="6" stroke-miterlimit="10" stroke-linecap="round" stroke-linejoin="round"/>
<path d="M3 48.9201L241.368 287.327" stroke="#8C9DD0" stroke-width="6" stroke-miterlimit="10" stroke-linecap="round" stroke-linejoin="round"/>
<path d="M194.198 187.938L426.906 420.684" stroke="#8C9DD0" stroke-width="6" stroke-miterlimit="10" stroke-linecap="round" stroke-linejoin="round"/>
<path d="M91.0516 84.7755L145.14 138.873" stroke="#8C9DD0" stroke-width="6" stroke-miterlimit="10" stroke-linecap="round" stroke-linejoin="round"/>
<path d="M239.481 181.019L389.798 331.36" stroke="#FFDC00" stroke-width="6" stroke-miterlimit="10" stroke-linecap="round" stroke-linejoin="round"/>
<path d="M86.0201 26.9036L196.714 138.244" stroke="#8C9DD0" stroke-width="6" stroke-miterlimit="10" stroke-linecap="round" stroke-linejoin="round"/>
<path d="M363.383 252.73L442 331.36" stroke="#8C9DD0" stroke-width="6" stroke-miterlimit="10" stroke-linecap="round" stroke-linejoin="round"/>
<path d="M153.946 42.6298L306.149 195.487" stroke="#FFDC00" stroke-width="6" stroke-miterlimit="10" stroke-linecap="round" stroke-linejoin="round"/>
<path d="M287.281 123.776L393.572 230.084" stroke="#8C9DD0" stroke-width="6" stroke-miterlimit="10" stroke-linecap="round" stroke-linejoin="round"/>
<path d="M166.524 3L245.771 82.2594" stroke="#8C9DD0" stroke-width="6" stroke-miterlimit="10" stroke-linecap="round" stroke-linejoin="round"/>
<path d="M381.622 165.922L423.132 207.439" stroke="#8C9DD0" stroke-width="6" stroke-miterlimit="10" stroke-linecap="round" stroke-linejoin="round"/>
<path d="M230.047 14.3228L334.451 118.744" stroke="#8C9DD0" stroke-width="6" stroke-miterlimit="10" stroke-linecap="round" stroke-linejoin="round"/>
<path d="M360.238 92.324L385.395 117.486" stroke="#FFDC00" stroke-width="6" stroke-miterlimit="10" stroke-linecap="round" stroke-linejoin="round"/>
<path d="M315.583 47.662L333.193 65.2752" stroke="#8C9DD0" stroke-width="6" stroke-miterlimit="10" stroke-linecap="round" stroke-linejoin="round"/>
</svg>
