<svg width="424" height="426" viewBox="0 0 424 426" fill="none" xmlns="http://www.w3.org/2000/svg">
<g clip-path="url(#clip0)">
<path d="M219.65 414.016C218.557 406.389 224.021 399.852 231.67 398.763C239.32 397.673 245.876 403.121 246.969 410.747C248.062 418.374 242.598 424.911 234.949 426C233.856 426 233.856 426 232.763 426C227.299 426 220.742 420.553 219.65 414.016ZM133.32 414.016C126.763 411.837 122.392 403.121 125.67 396.584C127.856 390.047 136.598 385.688 143.155 388.957C149.711 391.136 154.083 399.852 150.804 406.389C148.619 411.837 143.155 415.105 137.691 415.105C136.598 414.016 134.412 414.016 133.32 414.016ZM312.536 385.688C308.165 379.151 309.258 370.435 315.815 367.167C322.371 362.809 331.114 363.898 334.392 370.435C338.763 376.972 337.67 385.688 331.114 390.046C328.928 391.136 325.65 392.226 323.464 392.226C319.093 392.226 314.722 390.047 312.536 385.688ZM48.0826 355.182C43.7114 349.734 43.7114 341.018 49.1753 335.571C54.6393 330.123 63.3815 331.213 68.8454 336.66C74.3094 342.108 73.2166 350.824 67.7527 356.272C65.5671 358.451 62.2887 359.54 59.0104 359.54C54.6393 359.54 51.3609 358.451 48.0826 355.182ZM381.382 318.139C374.825 314.87 371.547 306.154 375.918 299.617C379.196 293.08 387.938 289.811 394.495 294.169C401.052 297.438 404.33 306.154 399.959 312.691C397.773 317.049 392.309 320.318 387.938 320.318C385.753 320.318 383.567 319.228 381.382 318.139ZM1.09286 264.752C-1.09271 257.126 3.27842 249.499 10.9279 248.41C18.5774 246.231 26.2269 250.589 27.3197 258.215C29.5052 265.842 25.1341 273.468 17.4846 274.558C16.3918 274.558 15.299 274.558 14.2063 274.558C7.64956 274.558 2.18564 271.289 1.09286 264.752ZM396.681 212.456C396.681 203.74 403.237 198.292 410.887 198.292C418.536 198.292 425.093 204.829 425.093 211.366C425.093 218.993 418.536 225.53 410.887 225.53C403.237 226.619 396.681 220.082 396.681 212.456ZM10.9279 178.681C3.27842 176.502 -1.09271 169.965 1.09286 162.338C3.27842 154.711 9.83513 150.353 17.4846 152.532C25.1341 154.711 29.5052 161.249 27.3197 168.875C26.2269 175.412 19.6702 179.77 14.2063 179.77C13.1135 178.681 12.0207 178.681 10.9279 178.681ZM374.825 125.295C371.547 118.757 373.732 110.041 380.289 106.773C386.845 103.504 395.588 105.683 398.866 112.22C402.144 118.757 399.959 127.474 393.402 130.742C391.217 131.832 389.031 131.832 386.845 131.832C382.474 132.921 377.01 129.653 374.825 125.295ZM49.1753 90.4301C43.7114 84.9825 42.6186 77.3559 48.0826 70.8188C53.5465 65.3712 61.196 65.3712 67.7527 69.7293C73.2166 75.1769 74.3094 83.893 68.8454 89.3406C65.5671 92.6091 62.2887 93.6986 57.9176 93.6986C54.6393 93.6986 51.3609 92.6091 49.1753 90.4301ZM315.815 58.8342C309.258 54.4761 308.165 45.76 312.536 40.3124C316.907 33.7753 325.65 32.6858 331.114 37.0439C337.67 41.4019 338.763 50.118 334.392 55.5656C332.206 59.9237 327.835 61.0132 323.464 61.0132C320.186 61.0132 318 59.9237 315.815 58.8342ZM124.577 30.5068C122.392 23.9697 125.67 15.2536 132.227 13.0746C138.784 10.8955 147.526 14.1641 149.711 20.7012C152.99 27.2383 149.711 35.9544 142.062 38.1334C140.969 39.2229 138.784 39.2229 136.598 39.2229C132.227 39.2229 126.763 35.9544 124.577 30.5068ZM231.67 27.2383C224.021 26.1487 218.557 19.6117 219.65 11.9851C220.742 4.35845 227.299 -1.08912 234.949 0.000394896C242.598 1.08991 248.062 7.62699 246.969 15.2536C245.876 21.7907 240.412 27.2383 233.856 27.2383C232.763 27.2383 231.67 27.2383 231.67 27.2383Z" fill="#FFDC00"/>
<path d="M218.557 376.972C217.464 370.435 221.835 364.987 228.392 364.987C234.948 363.898 240.412 368.256 240.412 374.793C241.505 381.33 237.134 386.778 230.577 386.778H229.484C224.021 386.778 218.557 382.42 218.557 376.972ZM147.526 376.972C142.062 374.793 138.783 368.256 140.969 362.808C143.155 357.361 149.711 354.092 155.175 356.271C160.639 358.45 163.918 364.987 161.732 370.435C159.546 374.793 156.268 378.062 150.804 378.062C149.711 378.062 148.619 376.972 147.526 376.972ZM293.959 354.092C290.68 348.645 291.773 342.108 297.237 338.839C302.701 335.571 309.258 336.66 312.536 342.108C315.814 347.555 314.722 354.092 309.258 357.361C307.072 358.45 304.887 359.54 302.701 359.54C299.423 359.54 296.144 357.361 293.959 354.092ZM77.5876 329.033C73.2165 324.675 74.3092 317.049 78.6804 313.78C83.0515 309.422 90.701 310.512 93.9794 314.87C98.3505 319.228 98.3505 325.765 93.9794 330.123C91.7938 332.302 89.6082 333.392 86.3299 333.392C83.0515 333.392 79.7732 332.302 77.5876 329.033ZM349.691 299.617C344.227 296.348 342.041 289.811 345.32 284.363C348.598 278.916 355.155 276.737 360.619 280.005C366.082 283.274 368.268 289.811 364.99 295.259C362.804 299.617 359.526 301.796 355.155 301.796C352.969 300.706 351.876 299.617 349.691 299.617ZM38.2474 254.947C37.1546 248.409 40.433 242.962 45.8969 241.872C52.4536 240.783 57.9175 244.051 59.0103 250.588C60.1031 256.036 56.8247 262.573 50.268 263.663C49.1752 263.663 48.0824 263.663 48.0824 263.663C44.8041 263.663 39.3402 260.394 38.2474 254.947ZM362.804 212.455C362.804 205.918 368.268 200.471 373.732 200.471C380.289 200.471 384.66 205.918 384.66 211.366C384.66 217.903 379.196 222.261 373.732 222.261C368.268 222.261 362.804 218.993 362.804 212.455ZM46.9897 185.218C40.433 184.128 37.1546 177.591 38.2474 172.143C39.3402 166.696 45.8969 162.338 51.3608 163.427C57.9175 164.517 61.1958 171.054 60.1031 176.502C59.0103 181.949 54.6391 185.218 49.1752 185.218C48.0824 185.218 46.9897 185.218 46.9897 185.218ZM345.32 141.637C342.041 136.19 344.227 129.652 349.691 126.384C355.155 123.115 361.711 125.294 364.99 130.742C368.268 136.19 366.082 142.727 360.619 145.995C358.433 147.085 357.34 147.085 355.155 147.085C350.783 147.085 346.412 144.906 345.32 141.637ZM78.6804 112.22C74.3092 107.862 73.2165 101.325 77.5876 96.967C81.9587 92.6089 88.5154 91.5194 92.8866 95.8775C98.3505 100.236 98.3505 106.773 93.9794 112.22C91.7938 114.399 88.5154 115.489 85.2371 115.489C83.0515 115.489 80.8659 114.399 78.6804 112.22ZM296.144 87.1614C290.68 83.8928 289.588 76.2662 292.866 71.9082C296.144 66.4606 303.794 65.3711 308.165 68.6396C313.629 71.9082 314.722 79.5348 311.443 83.8928C309.258 87.1614 305.979 88.2509 302.701 88.2509C300.515 88.2509 298.33 88.2509 296.144 87.1614ZM139.876 63.1921C137.691 57.7445 140.969 51.2074 146.433 49.0284C151.897 46.8494 158.454 50.1179 160.639 55.5655C162.825 61.013 159.546 67.5501 154.082 69.7292C152.99 69.7292 151.897 70.8187 149.711 70.8187C146.433 70.8187 142.062 67.5501 139.876 63.1921ZM227.299 61.013C220.742 59.9235 216.371 54.476 217.464 49.0284C218.557 42.4913 224.021 38.1332 229.484 39.2228C236.041 40.3123 240.412 45.7598 239.32 51.2074C238.227 56.655 233.856 61.013 228.392 61.013H227.299Z" fill="#FFDC00"/>
<path d="M216.371 346.465C215.278 341.018 219.649 336.66 224.02 336.66C229.484 335.57 233.855 339.928 233.855 344.286C234.948 349.734 230.577 354.092 226.206 354.092H225.113C220.742 354.092 217.464 350.823 216.371 346.465ZM158.453 345.376C154.082 343.197 151.897 338.839 152.989 333.391C155.175 329.033 159.546 326.854 165.01 327.943C169.381 330.122 171.567 334.481 170.474 339.928C169.381 343.197 166.103 345.376 161.732 345.376C160.639 346.465 159.546 346.465 158.453 345.376ZM277.567 327.943C274.288 323.585 275.381 318.138 279.752 314.869C284.123 311.601 289.587 312.69 292.866 317.048C296.144 321.406 295.051 326.854 290.68 330.122C289.587 331.212 287.402 331.212 285.216 331.212C281.938 331.212 279.752 330.122 277.567 327.943ZM102.721 307.243C99.4431 303.974 99.4431 297.437 103.814 294.169C107.093 290.9 113.649 290.9 116.928 295.258C120.206 298.527 120.206 305.064 115.835 308.332C113.649 309.422 111.464 310.511 109.278 310.511C107.093 310.511 104.907 309.422 102.721 307.243ZM323.464 283.273C319.093 281.094 316.907 275.647 320.185 271.289C322.371 266.931 327.835 264.752 332.206 268.02C336.577 270.199 338.763 275.647 336.577 280.005C334.392 282.184 331.113 283.273 327.835 283.273C325.649 283.273 324.556 283.273 323.464 283.273ZM71.0307 247.319C69.9379 242.961 73.2163 237.514 77.5874 236.424C81.9585 235.335 87.4225 238.603 88.5152 242.961C89.608 247.319 86.3297 252.767 81.9585 253.856C80.8658 253.856 80.8658 253.856 79.773 253.856C75.4018 253.856 72.1235 251.677 71.0307 247.319ZM333.299 212.455C333.299 207.007 337.67 202.649 342.041 202.649C347.505 202.649 350.783 207.007 350.783 211.365C350.783 216.813 346.412 220.082 342.041 220.082C337.67 222.261 333.299 217.903 333.299 212.455ZM77.5874 190.665C73.2163 189.575 69.9379 184.128 71.0307 179.77C72.1235 175.411 77.5874 172.143 81.9585 173.232C86.3297 174.322 89.608 179.77 88.5152 184.128C87.4225 188.486 84.1441 190.665 79.773 190.665C78.6802 190.665 78.6802 190.665 77.5874 190.665ZM319.093 154.711C316.907 150.353 318 144.905 322.371 142.726C326.742 140.547 332.206 141.637 334.392 145.995C336.577 150.353 335.484 155.8 331.113 157.979C330.02 159.069 327.835 159.069 326.742 159.069C323.464 160.158 321.278 157.979 319.093 154.711ZM102.721 131.831C99.4431 128.562 98.3503 123.115 101.629 118.757C104.907 115.488 110.371 114.399 114.742 117.667C118.02 120.936 119.113 126.383 115.835 130.741C113.649 132.92 111.464 134.01 109.278 134.01C107.093 134.01 104.907 132.92 102.721 131.831ZM279.752 111.13C275.381 107.862 274.288 102.414 277.567 98.056C280.845 93.6979 286.309 92.6084 290.68 95.8769C293.959 98.056 295.051 104.593 291.773 107.862C289.587 110.041 287.402 112.22 284.123 112.22C283.031 112.22 280.845 112.22 279.752 111.13ZM152.989 91.5189C150.804 87.1608 154.082 81.7132 158.453 79.5342C162.825 77.3552 168.288 80.6237 170.474 84.9818C172.66 89.3398 170.474 94.7874 165.01 96.9664C163.917 98.0559 162.825 98.056 161.732 98.056C158.453 98.056 154.082 95.8769 152.989 91.5189ZM224.02 89.3398C218.556 88.2503 215.278 83.8923 216.371 79.5342C217.464 74.0866 221.835 70.8181 226.206 71.9076C231.67 71.9076 234.948 77.3552 233.855 81.7132C233.855 86.0713 229.484 90.4293 224.02 89.3398C225.113 90.4293 224.02 90.4293 224.02 89.3398Z" fill="#FFDC00"/>
</g>
<defs>
<clipPath id="clip0">
<rect width="424" height="426" fill="white"/>
</clipPath>
</defs>
</svg>
