<svg width="441" height="426" viewBox="0 0 441 426" fill="none" xmlns="http://www.w3.org/2000/svg">
<path d="M3.65969 290.816C2.50944 290.121 2.35816 288.512 3.35876 287.615L245.999 70.0663C247.336 68.8677 249.453 69.9012 249.33 71.6924L225.323 421.324C225.22 422.817 223.574 423.673 222.293 422.899L3.65969 290.816L2.62551 292.528L3.65969 290.816Z" stroke="#8C9DD0" stroke-width="4"/>
<path d="M191.626 225.528C189.325 224.138 189.022 220.92 191.024 219.126L433.664 1.57717C436.338 -0.819936 440.571 1.24698 440.325 4.82939L416.318 354.461C416.113 357.447 412.821 359.159 410.259 357.611L191.626 225.528Z" fill="#FFDD00"/>
<path d="M104.666 263.728L346.336 45.598L322.425 396.164L104.666 263.728Z" stroke="#FFDC00" stroke-width="8"/>
</svg>
